<svg width="869" height="1012" viewBox="0 0 869 1012" fill="none" xmlns="http://www.w3.org/2000/svg">
<path fill-rule="evenodd" clip-rule="evenodd" d="M487.708 1.77069C475.588 5.04069 467.054 10.1197 457.492 19.7547C447.286 30.0387 441.898 39.5517 437.918 54.3147C435.521 63.2077 435.224 66.0707 435.226 80.3087C435.229 104.323 439.062 120.431 450.495 144.484C469.261 183.96 492.892 212.618 546.492 260.899C564.327 276.964 574.867 285.637 607.492 311.093C655.059 348.208 656.679 349.488 675.492 364.851C725.853 405.974 754.514 434.06 777.568 464.875C811.318 509.988 822.212 549.101 810.954 584.739C806.842 597.757 795.599 612.586 786.115 617.501L783.237 618.992L784.115 614.15C784.597 611.488 784.992 603.909 784.992 597.309C784.991 582.148 782.771 574.368 775.485 563.994C770.942 557.524 757.031 544.809 754.496 544.809C751.994 544.809 731.063 530.484 725.163 524.734C719.399 519.116 718.385 517.628 718.663 515.201C719.201 510.495 722.846 509.425 740.492 508.791C755.895 508.238 759.662 507.414 760.843 504.337C761.728 502.031 760.679 500.213 757.687 498.869C749.931 495.383 745.442 491.495 742.247 485.496C730.44 463.332 706.407 454.255 686.354 464.386C676.441 469.394 670.972 479.593 671.661 491.787C672.429 505.387 681.32 517.91 702.492 535.213C727.827 555.918 740.762 572.784 745.006 590.643C748.389 604.882 745.767 616.227 737.009 625.239C728.397 634.099 715.775 638.171 691.621 639.879C674.192 641.112 667.835 640.845 630.081 637.302C606.86 635.123 599.119 635.366 579.955 638.875C565.444 641.532 562.582 641.79 558.492 640.809C548.79 638.481 535.855 627.6 529.388 616.324C527.805 613.566 526.507 611.044 526.501 610.719C526.496 610.395 530.808 609.599 536.082 608.951C559.156 606.115 574.755 597.168 607.902 567.756C623.467 553.945 639.764 548.285 657.019 550.699C670.408 552.572 680.63 556.783 697.6 567.415C702.335 570.382 706.947 572.809 707.85 572.809C712.782 572.809 706.549 560.745 698.502 554.714C691.373 549.371 685.175 546.278 674.043 542.509C665.626 539.66 664.012 539.447 650.992 539.469C638.291 539.492 636.04 539.779 626.734 542.569C614.373 546.274 606.501 550.422 584.127 565.018C552.622 585.571 536.239 591.083 517.992 587.27C504.108 584.368 504.759 584.392 504.008 586.757C503.074 589.701 505.114 601.716 508.126 611.007C510.688 618.909 518.692 633.318 523.046 637.864C524.391 639.269 525.492 640.731 525.492 641.114C525.492 641.496 480.38 641.808 425.242 641.808C315.384 641.806 313.374 641.72 282.992 635.71C212.813 621.825 129.012 579.536 84.2517 535.416L75.2297 526.523L83.1107 523.858C99.5487 518.3 126.305 502.657 152.5 483.288C159.921 477.801 176.798 464.312 190.006 453.311C235.609 415.328 258.438 399.944 295.992 381.892C331.786 364.686 362.968 355.364 398.492 351.252C419.487 348.822 454.115 349.699 475.492 353.202C531.338 362.355 574.05 384.335 626.992 431.164C641.771 444.237 643.712 445.255 652.418 444.498C660.871 443.762 665.492 442.124 665.492 439.864C665.492 435.566 637.275 407.247 615.803 389.995C610.199 385.493 605.41 381.809 605.162 381.809C604.914 381.809 598.722 377.329 591.402 371.853C584.083 366.378 574.477 360.01 570.056 357.703C565.635 355.396 560.593 352.708 558.852 351.73C549.927 346.717 529.356 337.985 516.492 333.749C500.8 328.582 478.485 323.718 460.992 321.651C446.826 319.977 406.232 320.002 391.992 321.693C357.465 325.792 320.061 337.042 282.492 354.627C278.917 356.3 272.842 359.002 268.992 360.63C265.142 362.258 253.75 367.457 243.675 372.182C197.444 393.869 162.721 406.327 138.723 409.836C132.072 410.808 130.492 411.369 130.492 412.759C130.492 413.731 134.513 417.678 139.742 421.838C144.83 425.885 149.337 429.476 149.758 429.819C150.948 430.785 136.438 445.864 124.113 456.469C105.133 472.801 79.4307 488.479 57.4547 497.129C43.5317 502.609 15.5777 508.809 4.7887 508.809C2.6087 508.809 0.542702 509.091 0.198702 509.436C-0.791298 510.425 1.8257 514.772 10.1337 525.934C38.2257 563.681 83.2727 594.904 144.613 619.143C196.042 639.467 244.623 651.545 291.992 655.787C321.711 658.448 353.701 659.056 488.492 659.522C627.929 660.004 666.862 659.48 696.492 656.723C734.93 653.146 778.651 640.101 808.992 623.155C840.294 605.673 858.778 583.821 865.705 556.11C868.93 543.211 868.889 521.635 865.609 505.809C860.207 479.742 848.343 454.445 829.499 428.809C825.659 423.584 820.849 416.834 818.811 413.809C814.693 407.695 774.565 367.301 767.155 361.809C764.557 359.884 758.058 354.909 752.712 350.754C741.928 342.371 707.805 317.862 688.492 304.627C681.617 299.916 671.942 293.268 666.992 289.854C662.042 286.441 652.142 279.613 644.992 274.682C557.311 214.214 505.274 159.879 489.966 112.809C487.644 105.67 487.185 102.468 487.097 92.8087C486.974 79.3057 488.759 73.9947 495.03 69.2117C498.229 66.7717 499.923 66.2757 506.115 65.9627C518.26 65.3497 526.003 68.2547 554.486 84.1097C588.922 103.279 611.263 110.942 632.654 110.919C641.934 110.909 648.882 108.954 647.954 106.614C647.669 105.896 644.459 103.533 640.82 101.363C624.397 91.5677 604.445 72.0387 586.617 48.3087C568.639 24.3777 550 10.1447 526.992 2.77669C516.861 -0.46731 497.811 -0.955311 487.708 1.77069ZM78.9917 685.458C63.5017 687.522 51.8547 692.173 40.1487 700.967C28.1037 710.015 17.3707 726.431 14.0397 740.898C6.3237 774.41 16.9857 809.246 40.3767 826.954C54.6107 837.73 68.1727 842.147 86.9917 842.137C97.3107 842.131 100.143 841.753 107.207 839.437C125.021 833.597 138.077 821.32 144.336 804.521C146.655 798.295 147.078 794.289 145.516 793.324C144.979 792.992 142.335 792.459 139.641 792.14L134.742 791.56L131.499 797.644C127.218 805.677 118.929 814.709 112.755 818.069C106.262 821.603 96.9057 822.908 86.8227 821.686C64.1387 818.937 49.6057 800.813 46.6147 771.542C44.4447 750.312 48.9027 729.613 58.6337 715.727C65.8807 705.387 73.1257 701.596 86.7807 701C96.1507 700.592 96.8437 700.708 102.946 703.712C106.452 705.438 110.782 708.515 112.569 710.549C116.53 715.061 120.79 724.226 122.942 732.867C125.694 743.917 125.727 743.958 131.744 743.611L136.992 743.309L137.258 716.059L137.524 688.809H132.597C128.35 688.809 127.321 689.223 125.145 691.809C122.022 695.521 120.88 695.534 113.713 691.939C104.558 687.348 88.0007 684.257 78.9917 685.458ZM332.031 685.921C315.381 688.347 300.569 695.884 288.739 707.951C283.354 713.444 282.117 715.301 275.929 727.173C264.074 749.921 265.378 782.711 279.076 806.309C288.995 823.395 305.077 834.984 326.239 840.295C341.477 844.118 362.328 843.121 378.826 837.78C390.08 834.136 401.571 827.994 403.227 824.738C404.062 823.096 404.478 816.635 404.509 804.809C404.541 792.652 404.928 786.825 405.774 785.722C407.626 783.31 411.243 781.679 416.364 780.946L420.992 780.284V774.297V768.309H384.992H348.992L348.7 774.911L348.407 781.514L358.2 782.119C363.585 782.452 368.95 783.007 370.12 783.352C373.735 784.417 374.492 788.02 374.492 804.167C374.492 817.924 374.299 819.639 372.54 821.527C369.411 824.886 363.787 826.227 352.992 826.187C345.035 826.157 341.802 825.686 337.168 823.88C324.278 818.856 313.491 807.371 308.092 792.924C304.047 782.1 303.411 778.892 302.799 766.22C301.181 732.715 312.286 708.347 332.368 701.336C337.954 699.387 350.652 699.364 357.06 701.293C368.949 704.872 378.431 716.263 383.559 733.128C385.261 738.728 386.973 743.935 387.363 744.701C388.023 745.994 390.608 746.272 398.742 745.926L401.492 745.809V718.464C401.492 687.779 401.499 687.809 394.245 687.809C389.257 687.809 387.648 688.606 385.929 691.93C384.009 695.643 382.296 695.562 373.346 691.339C361.561 685.778 346.537 683.808 332.031 685.921ZM141.345 691.059C141.136 692.296 141.196 695.065 141.479 697.212C141.964 700.903 142.275 701.207 147.206 702.809C156.156 705.718 158.582 708.285 167.998 724.809C172.229 732.234 180.396 747.157 186.148 757.971L196.606 777.633L196.299 798.687C196.046 816.006 195.719 820.014 194.455 821.277C193.543 822.188 189.487 823.242 184.477 823.87C179.835 824.452 175.685 825.464 175.255 826.119C174.825 826.773 174.59 829.784 174.733 832.809L174.992 838.309L212.242 838.571L249.492 838.833V831.938C249.492 824.224 249.165 823.909 240.992 823.766C235.151 823.664 230.223 821.663 228.783 818.809C227.891 817.041 227.517 810.263 227.507 795.652L227.492 774.995L233.651 763.152C239.785 751.355 250.751 732.936 259.962 718.958C266.005 709.788 272.64 704.372 279.684 702.861C282.562 702.244 285.265 701.192 285.689 700.524C286.114 699.856 286.468 696.947 286.477 694.059L286.492 688.809H259.599C229.771 688.809 231.477 688.394 231.507 695.641C231.516 697.658 231.853 699.809 232.257 700.42C232.661 701.032 235.885 702.036 239.422 702.652C242.958 703.268 246.175 704.295 246.57 704.934C247.617 706.629 246.127 710.125 239.711 721.031C236.566 726.378 230.673 736.424 226.616 743.356C222.56 750.287 218.892 755.587 218.467 755.133C218.041 754.68 214.193 747.559 209.916 739.309C191.54 703.87 191.726 704.376 196.699 703.435C197.96 703.196 200.792 702.62 202.992 702.155L206.992 701.309L207.29 695.059L207.587 688.809H174.656H141.725L141.345 691.059ZM418.282 694.559C418.065 697.722 418.048 700.81 418.244 701.422C418.44 702.035 421.288 702.816 424.572 703.16C434.675 704.216 439.591 707.902 442.015 716.241C443.362 720.874 443.542 728.326 443.288 768.973C442.976 818.894 442.987 818.77 438.403 821.632C437.418 822.248 433.558 823.239 429.826 823.835C426.095 824.432 422.7 825.457 422.282 826.114C421.276 827.697 421.307 835.969 422.325 837.573C422.95 838.558 430.179 838.779 455.06 838.573L486.992 838.309V831.309V824.309L479.492 823.719C470.922 823.045 467.27 821.604 464.756 817.905C463.15 815.542 462.966 811.46 462.701 772.475C462.485 740.636 462.703 729.821 463.549 730.344C464.175 730.731 465.881 732.915 467.34 735.198C468.798 737.48 477.417 748.94 486.492 760.665C495.567 772.39 507.042 787.243 511.992 793.672C516.942 800.1 524.391 809.624 528.546 814.835C532.701 820.046 538.885 827.97 542.29 832.445C548.953 841.202 550.697 842.115 558.714 841.049L562.436 840.553L562.714 776.386C562.975 716.185 563.105 712.047 564.82 709.43C567.13 705.906 573.75 702.859 579.16 702.831C586.09 702.794 586.492 702.376 586.492 695.202V688.809H553.444H520.397L520.694 695.031L520.992 701.253L525.492 702.046C534.012 703.547 537.083 704.773 540.034 707.851L542.992 710.938L543.211 748.124L543.43 785.309L541.009 782.309C538.57 779.285 522.064 758.06 509.035 741.191C505.161 736.176 494.412 722.339 485.147 710.441L468.301 688.809H443.489H418.677L418.282 694.559ZM593.492 695.333C593.492 702.626 593.209 702.352 601.752 703.31C605.791 703.762 608.406 704.707 610.502 706.471L613.492 708.987V762.851C613.492 800.98 613.16 817.444 612.354 819.212C611.146 821.865 606.964 823.809 602.468 823.809C600.969 823.809 598.336 824.09 596.617 824.434L593.492 825.059V831.934V838.809H657.425C718.001 838.809 721.387 838.715 721.926 837.017C723.364 832.487 724.433 818.99 724.461 805.013L724.492 789.718L717.742 790.013L710.992 790.309L708.834 798.543C706.353 808.004 704.045 812.173 698.527 817.159C692.768 822.362 688.623 823.157 666.854 823.238C649.382 823.303 647.532 823.143 645.604 821.404C643.562 819.562 643.492 818.671 643.492 794.575V769.65L656.415 769.98C668.583 770.29 669.495 770.455 672.043 772.809C675.611 776.105 677.492 780.726 677.492 786.195C677.492 793.5 677.821 793.809 685.599 793.809H692.492V762.765V731.721L685.242 732.015L677.992 732.309L677.409 739.097C676.364 751.266 672.657 753.663 654.742 753.753L643.492 753.809V728.809V703.809H660.31C680.692 703.809 686.094 705.036 691.725 710.942C694.425 713.774 696.085 716.923 697.725 722.324L699.992 729.79L707.263 729.8L714.533 729.809L714.263 709.559L713.992 689.309L653.742 689.051L593.492 688.793V695.333ZM724.492 709.727C724.492 721.232 724.765 731.357 725.099 732.227C725.558 733.423 727.15 733.809 731.62 733.809C738.148 733.809 738.729 733.241 739.953 725.67C740.276 723.668 741.916 719.278 743.597 715.914C748.119 706.866 752.666 704.464 766.228 703.962L776.492 703.582V759.745C776.492 807.528 776.27 816.338 775.003 818.788C773.258 822.162 771.279 822.944 762.492 823.728L755.992 824.309L755.698 831.559L755.404 838.809H792.34H829.275L829.898 836.327C830.695 833.15 829.524 825.533 828.09 824.574C827.486 824.17 824.967 823.83 822.492 823.819C820.017 823.807 816.318 823.333 814.271 822.765C807.171 820.793 807.492 823.737 807.492 760.586V703.809H815.833C828.62 703.809 838.103 707.597 841.165 713.927C842.959 717.637 846.328 727.015 846.96 730.059C847.511 732.717 847.746 732.809 854.011 732.809H860.492L860.6 728.059C860.684 724.329 860.615 692.915 860.514 689.559C860.502 689.146 829.892 688.809 792.492 688.809H724.492V709.727ZM218.992 859.502C208.551 860.693 201.126 864.146 195.664 870.351C190.494 876.225 189.18 880.278 189.665 888.857C190.4 901.87 198.318 908.972 219.778 915.866C241.363 922.8 245.492 925.717 245.492 934.037C245.492 941.249 239.649 945.16 228.992 945.079C213.695 944.964 203.886 937.554 199.513 922.809L197.881 917.309L192.187 917.009L186.492 916.709V936.259V955.809H193.086C198.838 955.809 199.746 955.554 200.202 953.809C200.846 951.345 201.173 951.341 206.615 953.73C212.242 956.201 226.222 958.223 232.842 957.525C235.674 957.226 240.242 956.225 242.992 955.301C256.927 950.617 262.992 942.56 262.992 928.73C262.992 912.257 254.667 904.1 229.511 895.927C218.907 892.482 215.332 890.849 212.761 888.278C208.539 884.056 208.416 880.214 212.382 876.415C219.989 869.126 236.924 871.907 243.192 881.474C244.105 882.867 245.38 886.099 246.027 888.658C247.19 893.255 247.256 893.312 251.685 893.607C254.661 893.805 256.567 893.424 257.357 892.472C258.188 891.47 258.463 886.562 258.269 876.174L257.992 861.309L254.128 860.992C251.227 860.754 249.678 861.225 247.915 862.881L245.567 865.087L240.779 863.038C238.146 861.911 233.742 860.699 230.992 860.344C228.242 859.99 225.092 859.578 223.992 859.43C222.892 859.282 220.642 859.314 218.992 859.502ZM21.1477 861.642C19.6957 861.917 19.4447 862.865 19.6927 867.134L19.9917 872.293L24.9917 873.003C33.6957 874.239 33.4917 873.38 33.4917 908.809C33.4917 944.182 33.6297 943.588 25.2187 944.536C19.4867 945.182 18.6807 946.127 19.2507 951.527L19.6957 955.746L46.1367 956.027L72.5777 956.309L72.2847 950.809L71.9917 945.309L66.3957 944.809C56.9517 943.965 57.4917 946.121 57.4917 909.258C57.4917 873.993 57.4157 874.466 63.3117 873.267C70.1337 871.88 72.4887 868.921 71.1187 863.457C70.5867 861.335 70.2947 861.309 46.7417 861.309C33.6307 861.309 22.1137 861.459 21.1477 861.642ZM393.742 861.55L369.492 861.845V866.127C369.492 871.254 370.805 872.809 375.136 872.809C377.061 872.809 379.447 873.726 381.001 875.064L383.623 877.318L383.617 909.283C383.611 944.391 383.829 943.139 377.492 944.389C370.44 945.781 370.007 946.132 369.677 950.728C369.504 953.139 369.797 955.38 370.329 955.71C370.861 956.039 383.265 956.182 397.894 956.027L424.492 955.745V951.477C424.492 946.05 423.193 944.809 417.515 944.809C414.99 944.809 411.94 944.111 410.715 943.252C408.496 941.698 408.492 941.642 408.492 909.325V876.954L411.127 874.882C412.576 873.742 414.996 872.809 416.504 872.809C418.013 872.809 419.78 872.167 420.431 871.383C422.14 869.323 421.397 861.336 419.492 861.291C418.667 861.271 407.079 861.388 393.742 861.55ZM554.69 861.558L531.389 861.846L531.69 867.065C531.991 872.269 532.003 872.285 535.81 872.9C543.052 874.069 542.933 873.571 543.492 905.093C543.969 932.028 544.097 933.522 546.304 938.002C553.411 952.432 567.778 958.651 591.492 957.563C605.804 956.906 611.99 954.489 620.071 946.397C629.38 937.074 629.725 935.63 630.415 903.107C630.821 883.976 631.348 875.549 632.191 874.708C632.851 874.049 635.101 873.233 637.191 872.893L640.992 872.275V866.844V861.412L621.503 861.699C610.785 861.857 601.672 862.198 601.253 862.456C600.036 863.209 600.375 870.292 601.692 871.609C602.352 872.269 604.397 872.809 606.237 872.809C608.456 872.809 610.41 873.636 612.037 875.264L614.492 877.718L614.486 902.514C614.483 916.483 614.03 928.933 613.448 931.028C612.099 935.884 608.247 940.37 603.116 943.057C597.113 946.202 583.807 946.21 577.492 943.074C567.845 938.282 566.161 931.402 566.658 898.806C567.037 873.903 566.937 874.215 575.082 872.693C580.448 871.691 581.455 870.678 581.477 866.259C581.491 863.443 579.835 860.498 578.542 861.04C578.24 861.167 567.506 861.4 554.69 861.558ZM694.242 861.569L646.492 861.828V877.876V893.924L650.703 893.616C654.719 893.323 654.972 893.111 656.143 889.048C658.882 879.548 665.329 874.871 675.742 874.831L681.492 874.809V907.618C681.492 933.098 681.199 940.827 680.181 942.219C679.351 943.354 677.058 944.206 673.931 944.541C667.501 945.23 666.492 946.165 666.492 951.431V955.809L691.742 955.992C721.919 956.211 721.615 956.225 722.631 954.598C723.473 953.25 723.041 947.025 722.035 946.019C721.715 945.699 718.754 945.119 715.454 944.73C712.154 944.341 708.788 943.469 707.973 942.793C706.719 941.753 706.492 936.447 706.492 908.187V874.809H713.524C725.249 874.809 728.983 877.425 732.612 888.181C734.296 893.174 734.454 893.317 738.568 893.624C741.269 893.825 743.095 893.464 743.628 892.624C745.018 890.431 744.682 864.411 743.242 862.75C742.18 861.526 734.804 861.348 694.242 861.569ZM77.9497 866.238C77.1557 871.533 77.7777 872.809 81.1497 872.809C82.5467 872.809 85.2167 873.534 87.0837 874.42C92.2877 876.889 92.6607 879.544 92.3057 911.533C91.9487 943.609 92.1507 942.855 83.4917 944.506L78.9917 945.364L78.6897 950.586L78.3867 955.809H100.94H123.492V950.828C123.492 945.394 123.902 945.716 115.186 944.311C108.124 943.173 107.803 942.283 107.022 921.672C106.639 911.572 106.476 900.466 106.659 896.991L106.992 890.672L110.992 895.974C115.019 901.312 118.526 905.759 143.978 937.809C151.622 947.434 157.902 955.373 157.934 955.452C157.966 955.531 160.917 955.756 164.492 955.952L170.992 956.309L171.492 917.163C171.956 880.853 172.126 877.868 173.846 875.969C174.865 874.844 177.115 873.638 178.846 873.291C185.54 871.948 185.492 871.995 185.492 866.742V861.809H163.492H141.492V866.79C141.492 871.409 141.692 871.815 144.242 872.38C156.628 875.122 156.492 874.831 156.492 898.608V917.962L154.13 915.136C150.098 910.31 115.309 865.488 114.128 863.598C113.125 861.992 111.251 861.809 95.8127 861.809H78.6147L77.9497 866.238ZM268.932 863.105C268.658 863.818 268.56 870.905 268.713 878.855L268.992 893.309H272.811C276.514 893.309 276.683 893.153 278.366 888.181C281.997 877.454 286.136 874.501 296.819 875.013L302.992 875.309L303.255 907.85C303.458 932.831 303.225 940.791 302.255 942.117C301.468 943.194 298.986 944.082 295.665 944.475C292.735 944.822 289.698 945.746 288.915 946.529C287.15 948.294 287.018 955.459 288.742 955.954C289.43 956.151 302.142 956.086 316.992 955.811L343.992 955.309L344.253 951.809C344.637 946.656 343.408 945.55 336.375 944.721C332.143 944.222 329.665 943.399 328.791 942.203C327.788 940.832 327.492 932.946 327.492 907.618V874.809H334.024C337.617 874.809 342.057 875.436 343.892 876.203C347.95 877.898 351.74 882.773 353.693 888.809C355.109 893.189 355.27 893.317 359.685 893.608C363.964 893.891 364.25 893.748 364.702 891.108C364.966 889.569 365.048 883.809 364.884 878.309C364.72 872.809 364.564 866.847 364.539 865.059L364.492 861.809H316.961C278.959 861.809 269.33 862.069 268.932 863.105ZM427.932 863.105C427.658 863.818 427.56 870.905 427.713 878.855L427.992 893.309H432.461C436.916 893.309 436.935 893.294 438.734 888.309C441.614 880.329 442.7 878.744 446.67 876.718C449.304 875.374 452.497 874.809 457.452 874.809C461.324 874.809 464.532 875.146 464.58 875.559C465.164 880.518 464.921 936.254 464.304 938.956C463.356 943.103 462.186 943.784 454.492 944.673L448.992 945.309L448.693 950.476C448.448 954.701 448.705 955.704 450.103 955.976C451.043 956.159 463.891 956.182 478.652 956.028L505.492 955.746V950.797C505.492 945.34 505.639 945.446 496.664 944.456C488.189 943.521 488.492 944.885 488.492 907.654V874.809L495.242 874.815C505.756 874.825 509.073 877.236 513.091 887.794L515.19 893.309H519.591H523.992L524.267 877.559L524.543 861.809H476.486C438.054 861.809 428.33 862.069 427.932 863.105ZM747.69 867.059C747.979 872.087 748.119 872.321 750.992 872.583C762.045 873.593 761.497 871.708 761.46 908.63C761.424 944.66 761.625 943.719 753.796 944.556C747.93 945.184 746.492 946.226 746.492 949.85C746.492 956.228 743.078 955.809 795.038 955.809H842.369L843.13 951.059C843.548 948.447 843.913 940.684 843.941 933.809L843.992 921.309H839.094H834.197L832.547 926.37C828.069 940.107 824.026 942.661 804.875 943.852C791.467 944.686 788.675 944.453 787.257 942.382C786.853 941.792 786.516 934.896 786.507 927.059L786.492 912.809H794.436C804.465 912.809 807.397 914.783 808.22 922.092C808.513 924.686 809.031 926.854 809.372 926.91C810.412 927.079 814.859 927.102 817.263 926.951L819.534 926.809L819.263 907.059L818.992 887.309H814.02H809.047L808.291 891.809C807.163 898.517 804.998 899.809 794.881 899.809H786.492V887.198V874.587L800.742 874.994C816.525 875.445 819.63 876.386 823.563 881.909C824.789 883.63 826.078 886.449 826.428 888.174C827.006 891.022 827.449 891.337 831.278 891.616L835.492 891.924V876.866V861.809H791.44H747.387L747.69 867.059ZM30.9117 981.695C25.3047 985.114 22.5637 995.608 25.3577 1002.96C27.5247 1008.66 35.7377 1012.31 43.2007 1010.89C49.0637 1009.78 52.3437 1007.35 54.5537 1002.48C58.1517 994.556 56.1897 986.485 49.5937 982.079C45.1397 979.103 35.4867 978.905 30.9117 981.695ZM58.4917 981.669C58.4917 982.728 59.1667 983.854 59.9917 984.171C61.1937 984.632 61.4917 986.842 61.4917 995.309C61.4917 1003.78 61.1937 1005.99 59.9917 1006.45C59.1667 1006.76 58.4917 1007.87 58.4917 1008.92C58.4917 1010.59 59.2907 1010.81 65.4917 1010.81C71.7537 1010.81 72.4917 1010.6 72.4917 1008.87C72.4917 1007.8 72.0417 1006.65 71.4917 1006.31C70.9417 1005.97 70.4917 1004.14 70.4917 1002.25C70.4917 999.287 70.8247 998.809 72.8847 998.809C74.2007 998.809 75.5477 999.513 75.8777 1000.37C76.9967 1003.29 78.4917 1000.71 78.4917 995.872C78.4917 990.169 76.3297 987.374 74.5267 990.744C72.7237 994.113 70.4917 993.318 70.4917 989.309C70.4917 986.178 70.7747 985.809 73.1777 985.809C74.6547 985.809 76.8927 986.776 78.1507 987.959C80.1057 989.795 80.5267 989.882 81.0357 988.554C81.3637 987.699 81.4887 985.494 81.3117 983.654L80.9917 980.309L69.7417 980.026C59.2047 979.761 58.4917 979.866 58.4917 981.669ZM95.4917 981.809C95.4917 982.909 95.9417 983.809 96.4917 983.809C97.0997 983.809 97.4917 988.289 97.4917 995.25C97.4917 1001.8 97.0637 1006.95 96.4917 1007.31C95.9417 1007.65 95.4917 1008.57 95.4917 1009.37C95.4917 1010.48 97.0637 1010.81 102.492 1010.81C107.92 1010.81 109.492 1010.48 109.492 1009.37C109.492 1008.57 109.042 1007.65 108.492 1007.31C107.942 1006.97 107.493 1005.03 107.495 1003C107.498 999.391 107.584 999.308 111.356 999.265C116.424 999.208 120.035 996.723 121.5 992.286C122.394 989.575 122.406 988.015 121.547 985.941C119.585 981.205 115.839 979.809 105.088 979.809C96.1587 979.809 95.4917 979.948 95.4917 981.809ZM125.602 981.176C124.739 982.216 124.829 982.844 125.98 983.799C128.235 985.67 128.189 1007.33 125.929 1008.19C121.919 1009.73 126.478 1010.81 137.012 1010.81H148.415L149.498 1006.79C150.094 1004.57 150.31 1002.32 149.978 1001.79C148.97 1000.15 146.626 1000.69 145.492 1002.81C144.748 1004.2 143.398 1004.81 141.065 1004.81C138.303 1004.81 137.596 1004.36 137.07 1002.26C135.968 997.871 138.287 996.409 141.6 999.407C144.23 1001.79 145.492 1000.28 145.492 994.75C145.492 989.43 143.893 988.265 140.815 991.344C138.842 993.316 136.492 991.6 136.492 988.187C136.492 986.152 136.98 985.809 139.87 985.809C141.727 985.809 143.807 986.484 144.492 987.309C145.177 988.134 146.582 988.809 147.614 988.809C149.726 988.809 150.059 986.432 148.517 982.374C147.556 979.848 147.385 979.809 137.139 979.809C129.561 979.809 126.429 980.18 125.602 981.176ZM152.839 981.346C152.515 982.192 152.944 983.654 153.792 984.596C155.738 986.756 155.681 1005.02 153.722 1006.98C150.875 1009.83 152.355 1010.81 159.492 1010.81C166.508 1010.81 168.105 1009.82 165.424 1007.14C164.836 1006.55 164.516 1004.33 164.712 1002.19L165.068 998.309L168.03 1004.53L170.992 1010.74L176.742 1010.78C181.114 1010.8 182.492 1010.46 182.492 1009.36C182.492 1008.56 181.905 1007.55 181.188 1007.11C180.471 1006.67 178.488 1004.21 176.781 1001.65L173.677 996.983L175.983 994.817C180.735 990.353 179.354 983.003 173.373 980.917C171.624 980.308 166.422 979.809 161.811 979.809C155.193 979.809 153.305 980.132 152.839 981.346ZM186.415 982.732C180.709 988.439 183.037 994.545 193.063 1000.17C197.811 1002.83 198.2 1005.19 193.961 1005.61C191.758 1005.82 190.275 1005.21 188.536 1003.36C185.219 999.825 183.492 1000.09 183.492 1004.12C183.492 1009.6 185.179 1010.9 192.52 1011.07C200.242 1011.25 203.143 1009.89 205.126 1005.14C207.528 999.394 205.682 995.722 198.454 991.869C192.759 988.834 191.206 986.722 193.587 985.25C195.07 984.334 199.492 986.803 199.492 988.548C199.492 989.428 200.328 989.829 201.742 989.629C203.477 989.382 204.065 988.551 204.31 985.994C204.793 980.96 203.209 979.809 195.793 979.809C189.992 979.809 189.042 980.105 186.415 982.732ZM213 983.059C206.334 989.314 205.807 1000.32 211.881 1006.4C220.901 1015.42 236.01 1011.41 239.432 999.086C240.842 994.01 240.76 992.995 238.545 988.118C236.007 982.526 230.765 979.809 222.517 979.809C217.063 979.809 216.119 980.132 213 983.059ZM241.826 981.38C241.429 982.417 241.814 983.41 242.838 983.982C245.176 985.291 245.316 1006.28 242.992 1007.17C242.167 1007.49 241.492 1008.43 241.492 1009.28C241.492 1010.48 242.765 1010.81 247.433 1010.81C253.866 1010.81 255.759 1009.62 252.531 1007.6C250.774 1006.5 250.492 1005.29 250.492 998.847V991.365L252.742 994.469C263.034 1008.67 265.014 1010.83 267.492 1010.57L269.992 1010.31L270.274 997.852C270.492 988.246 270.915 984.999 272.122 983.665C274.464 981.077 272.941 979.809 267.492 979.809C261.979 979.809 260.522 981.079 262.953 983.766C264.124 985.06 264.519 986.989 264.301 990.338L263.992 995.079L258.492 987.694L252.992 980.309L247.731 980.006C243.548 979.766 242.338 980.047 241.826 981.38ZM284.683 985.059C283.56 987.947 282.097 992.109 281.432 994.309C279.77 999.8 276.514 1006.14 274.862 1007.11C274.108 1007.55 273.492 1008.56 273.492 1009.36C273.492 1010.45 274.854 1010.81 278.992 1010.81C283.746 1010.81 284.492 1010.55 284.492 1008.89C284.492 1007.84 284.053 1006.83 283.518 1006.64C282.982 1006.46 282.809 1005.3 283.134 1004.06C283.631 1002.17 284.409 1001.81 287.992 1001.81C291.566 1001.81 292.354 1002.17 292.843 1004.04C293.164 1005.27 292.991 1006.71 292.459 1007.24C291.927 1007.77 291.492 1008.79 291.492 1009.51C291.492 1010.53 295.532 1010.81 310.285 1010.81H329.077L330.3 1006.24C332.091 999.541 330.063 997.542 326.313 1002.31C325.016 1003.96 323.351 1004.81 321.419 1004.81H318.492V994.669C318.492 986.394 318.796 984.307 320.145 983.321C323.065 981.185 320.654 979.809 313.992 979.809C307.107 979.809 305.373 980.915 307.894 983.701C309.137 985.074 309.492 987.72 309.492 995.603C309.492 1004.69 309.287 1005.85 307.506 1006.8C304.641 1008.33 302.861 1005.82 298.41 993.969C293.322 980.419 292.941 979.809 289.573 979.809C287.062 979.809 286.482 980.432 284.683 985.059ZM343.973 980.84C343.601 981.442 344.015 982.73 344.894 983.701C347.16 986.205 347.244 1006.31 344.992 1007.17C344.167 1007.49 343.492 1008.43 343.492 1009.28C343.492 1010.52 344.975 1010.81 351.492 1010.81C357.851 1010.81 359.492 1010.51 359.492 1009.34C359.492 1008.54 358.592 1007.4 357.492 1006.81C354.617 1005.27 354.628 998.809 357.506 998.809C358.613 998.809 360.393 999.354 361.46 1000.02C363.682 1001.41 364.211 1001.11 364.509 998.309C365.112 992.645 364.475 989.809 362.599 989.809C361.558 989.809 360.447 990.484 360.13 991.309C359.814 992.134 358.641 992.809 357.523 992.809C355.868 992.809 355.492 992.16 355.492 989.309C355.492 986.007 355.681 985.809 358.837 985.809C360.912 985.809 362.869 986.568 363.992 987.809C366.798 990.909 367.628 990.219 367.297 985.059L366.992 980.309L355.821 980.027C348.516 979.843 344.415 980.124 343.973 980.84ZM370.953 980.872C370.592 981.457 371.015 982.73 371.894 983.701C374.16 986.205 374.244 1006.31 371.992 1007.17C371.167 1007.49 370.492 1008.43 370.492 1009.28C370.492 1010.52 371.924 1010.81 377.992 1010.81C384.06 1010.81 385.492 1010.52 385.492 1009.28C385.492 1008.43 384.817 1007.49 383.992 1007.17C382.78 1006.71 382.492 1004.41 382.492 995.202C382.492 988.273 382.884 983.809 383.492 983.809C384.042 983.809 384.492 982.909 384.492 981.809C384.492 980.016 383.825 979.809 378.051 979.809C374.508 979.809 371.314 980.287 370.953 980.872ZM387.953 980.872C387.592 981.457 388.015 982.73 388.894 983.701C391.16 986.205 391.244 1006.31 388.992 1007.17C388.167 1007.49 387.492 1008.43 387.492 1009.28C387.492 1010.48 388.771 1010.81 393.492 1010.81C398.712 1010.81 399.492 1010.56 399.492 1008.92C399.492 1007.87 398.817 1006.76 397.992 1006.45C396.861 1006.01 396.496 1004.21 396.507 999.09L396.522 992.309L399.987 996.309C401.893 998.509 405.111 1002.67 407.138 1005.56C410.05 1009.71 411.397 1010.81 413.55 1010.81C417.104 1010.81 417.657 1008.56 417.378 995.233C417.231 988.159 417.557 984.436 418.414 983.403C420.4 981.01 418.756 979.809 413.492 979.809C407.977 979.809 406.522 981.08 408.957 983.77C410.074 985.004 410.515 986.93 410.304 989.656L409.992 993.707L404.15 986.758C398.4 979.918 398.233 979.809 393.459 979.809C390.792 979.809 388.314 980.287 387.953 980.872ZM432.56 982.059C427.717 994.412 422.145 1006.53 420.867 1007.49C418.231 1009.47 420.319 1010.81 426.051 1010.81C430.746 1010.81 431.492 1010.55 431.492 1008.89C431.492 1007.84 430.982 1006.81 430.359 1006.6C429.673 1006.37 429.503 1005.35 429.927 1004.01C430.506 1002.19 431.371 1001.81 434.943 1001.81C438.568 1001.81 439.352 1002.17 439.843 1004.04C440.164 1005.27 439.991 1006.71 439.459 1007.24C438.927 1007.77 438.492 1008.79 438.492 1009.51C438.492 1010.51 441.582 1010.81 451.992 1010.81C464.825 1010.81 465.492 1010.71 465.492 1008.81C465.492 1007.7 464.825 1006.81 463.992 1006.81C462.802 1006.81 462.492 1005.36 462.492 999.809C462.492 995.959 462.705 992.809 462.966 992.809C463.227 992.809 466.431 996.884 470.086 1001.86C475.857 1009.73 477.079 1010.88 479.362 1010.61L481.992 1010.31L482.271 997.657C482.484 988.001 482.899 984.716 484.021 983.785C487.221 981.129 485.717 979.809 479.492 979.809C473.168 979.809 472.187 980.709 475.054 983.878C476.098 985.031 476.513 987.051 476.304 989.957L475.992 994.309L469.992 987.083C464.118 980.009 463.893 979.856 459.301 979.833C454.012 979.806 452.539 981.099 454.894 983.701C457.217 986.267 457.239 1006.31 454.92 1007.2C452.235 1008.23 449.737 1006.03 447.959 1001.07C440.017 978.913 440.506 979.809 436.345 979.809C434.263 979.809 433.193 980.445 432.56 982.059ZM494.492 981.444C486.081 987.379 484.837 999.529 491.91 1006.66C497.834 1012.64 509.615 1012.88 514.237 1007.11C516.896 1003.79 517.035 1002.5 514.923 1000.75C513.593 999.648 513.021 999.852 511.173 1002.09C509.973 1003.54 507.758 1005.02 506.249 1005.37C502.2 1006.33 496.492 1000.47 496.492 995.359C496.492 986.144 503.462 981.688 509.083 987.309C510.458 988.684 512.521 989.809 513.668 989.809C515.511 989.809 515.684 989.382 515.159 986.145C514.832 984.13 514.078 981.995 513.484 981.401C512.889 980.806 508.935 980.176 504.697 980C498.582 979.746 496.476 980.044 494.492 981.444ZM517.806 981.433C517.431 982.41 517.842 983.425 518.838 983.982C521.153 985.279 521.297 1005.9 519.003 1007.8C516.111 1010.2 518.752 1010.81 532.051 1010.81C544.825 1010.81 545.492 1010.71 545.492 1008.81C545.492 1007.64 544.825 1006.81 543.885 1006.81C542.83 1006.81 542.487 1006.26 542.885 1005.23C543.219 1004.36 543.492 1003.23 543.492 1002.73C543.492 1002.22 545.276 1001.81 547.457 1001.81C550.52 1001.81 551.69 1002.31 552.6 1004.01C553.478 1005.65 553.487 1006.31 552.635 1006.59C552.007 1006.8 551.492 1007.84 551.492 1008.89C551.492 1010.71 552.44 1010.81 570.931 1010.81H590.369L591.056 1006.23C591.987 1000.02 590.362 998.391 586.932 1002.09C583.485 1005.81 578.794 1005.86 577.874 1002.19C576.987 998.659 578.259 984.392 579.5 983.976C580.045 983.792 580.492 982.78 580.492 981.726C580.492 980.019 579.724 979.809 573.492 979.809C567.159 979.809 566.492 979.999 566.492 981.809C566.492 982.909 566.942 983.809 567.492 983.809C568.882 983.809 568.821 1006.49 567.429 1007.35C565.353 1008.63 562.929 1004.79 557.992 992.389C553.072 980.032 552.941 979.831 549.839 979.82C546.732 979.809 546.607 980 541.339 992.907C536.097 1005.75 534.19 1008.48 531.585 1006.87C529.411 1005.52 528.868 989.766 530.859 985.776C533.628 980.224 533.253 979.809 525.461 979.809C519.895 979.809 518.299 980.147 517.806 981.433ZM604.781 981.499C604.419 982.443 604.653 983.363 605.312 983.582C606.804 984.08 606.973 1006.39 605.492 1007.31C604.942 1007.65 604.492 1008.57 604.492 1009.37C604.492 1010.54 606.638 1010.81 615.933 1010.81C622.226 1010.81 627.609 1010.43 627.896 1009.96C628.184 1009.5 628.718 1007.25 629.083 1004.96C629.665 1001.32 629.514 1000.81 627.86 1000.81C626.822 1000.81 625.411 1001.71 624.724 1002.81C623.862 1004.19 622.392 1004.81 619.984 1004.81H616.492V994.368C616.492 988.486 616.929 983.657 617.492 983.309C618.042 982.969 618.492 982.043 618.492 981.25C618.492 978.973 605.66 979.207 604.781 981.499ZM631.806 981.433C631.431 982.41 631.842 983.425 632.838 983.982C635.177 985.292 635.317 1006.55 632.992 1007.45C632.167 1007.76 631.492 1008.65 631.492 1009.42C631.492 1010.48 633.248 1010.81 638.992 1010.81C647.02 1010.81 648.309 1009.81 644.492 1006.54C642.758 1005.06 642.492 1003.59 642.492 995.541C642.492 988.751 642.911 985.656 644.05 984.03C646.341 980.758 645.071 979.809 638.402 979.809C633.813 979.809 632.285 980.185 631.806 981.433ZM648.527 981.743C645.785 986.867 648.987 992.402 652.112 987.94C652.934 986.768 654.255 985.809 655.049 985.809C656.214 985.809 656.492 987.818 656.492 996.25C656.492 1002.13 656.055 1006.96 655.492 1007.31C654.942 1007.65 654.492 1008.57 654.492 1009.37C654.492 1010.48 656.064 1010.81 661.492 1010.81C668.74 1010.81 670.377 1009.62 666.992 1006.81C665.844 1005.86 665.492 1003.25 665.492 995.687C665.492 987.09 665.711 985.809 667.178 985.809C668.105 985.809 669.871 986.756 671.104 987.914C674.713 991.305 676.566 988.419 674.862 982.059C674.278 979.88 673.871 979.809 661.911 979.809C650.726 979.809 649.465 979.991 648.527 981.743ZM677.938 980.896C677.569 981.494 677.767 982.484 678.379 983.096C679.064 983.781 679.492 988.512 679.492 995.387C679.492 1004.1 679.162 1006.84 677.992 1007.81C677.167 1008.49 676.492 1009.45 676.492 1009.93C676.492 1011.06 700.201 1011.09 700.896 1009.96C701.184 1009.5 701.718 1007.25 702.083 1004.96C702.851 1000.16 701.89 999.716 697.597 1002.89C693.557 1005.88 689.095 1005.21 688.675 1001.55C688.285 998.159 690.609 996.999 694.08 998.856C697.557 1000.72 698.878 999.052 698.008 993.905C697.48 990.78 696.863 989.809 695.404 989.809C694.352 989.809 693.492 990.259 693.492 990.809C693.492 991.359 692.315 991.809 690.875 991.809C688.65 991.809 688.349 991.473 688.862 989.559C689.193 988.322 689.471 986.972 689.478 986.559C689.503 985.178 695.232 985.79 696.492 987.309C697.177 988.134 698.632 988.809 699.726 988.809C701.482 988.809 701.632 988.371 701.013 985.067C700.626 983.008 700.1 980.983 699.842 980.567C699.091 979.35 678.704 979.657 677.938 980.896ZM705.02 980.763C704.622 981.408 705.015 982.73 705.894 983.701C708.161 986.206 708.245 1006.58 705.992 1007.45C705.167 1007.76 704.492 1008.65 704.492 1009.42C704.492 1010.48 706.248 1010.81 711.992 1010.81C718.06 1010.81 719.492 1010.52 719.492 1009.28C719.492 1008.43 718.817 1007.49 717.992 1007.17C716.465 1006.58 715.775 999.807 717.242 999.811C717.655 999.813 719.285 1002.29 720.865 1005.31L723.737 1010.81H734.056C744.63 1010.81 747.532 1009.77 744.066 1007.24C742.669 1006.22 742.55 1005.57 743.448 1003.89C745.078 1000.84 751.237 1000.96 752.403 1004.06C752.877 1005.32 752.863 1006.45 752.37 1006.64C751.887 1006.83 751.492 1007.84 751.492 1008.89C751.492 1010.6 752.259 1010.81 758.433 1010.81C765.946 1010.81 767.494 1009.93 764.751 1007.24C763.784 1006.29 760.683 999.845 757.86 992.913C752.755 980.377 752.71 980.309 749.446 980.309C746.174 980.309 746.148 980.349 741.237 992.809C738.527 999.684 735.976 1005.66 735.568 1006.09C734.258 1007.47 731.728 1005.76 729.012 1001.66L726.366 997.662L728.929 995.099C732.273 991.755 732.344 986.911 729.104 983.144C726.826 980.496 726.233 980.35 716.23 979.98C708.92 979.709 705.525 979.946 705.02 980.763ZM771.684 981.833C768.004 984.077 764.536 990.615 764.536 995.309C764.536 999.54 767.856 1006.35 770.888 1008.33C775.01 1011.03 780.964 1011.97 785.981 1010.71C791.094 1009.42 792.235 1008.34 793.108 1003.98C793.985 999.596 791.294 998.652 788.013 1002.19C786.293 1004.05 784.576 1004.81 782.112 1004.81C777.287 1004.81 774.492 1001.14 774.492 994.809C774.492 985.533 781.554 981.529 786.839 987.809C789.686 991.193 790.99 991.529 792.285 989.214C793.6 986.865 792.548 982.962 790.147 981.28C786.89 978.999 775.788 979.331 771.684 981.833ZM794.492 981.369C794.492 982.278 795.593 983.887 796.938 984.945C800.649 987.865 806.619 1000.44 805.831 1003.67C805.479 1005.12 804.583 1006.67 803.841 1007.11C803.099 1007.55 802.492 1008.56 802.492 1009.36C802.492 1010.5 804.106 1010.81 809.992 1010.81C815.696 1010.81 817.492 1010.48 817.492 1009.43C817.492 1008.67 816.817 1007.49 815.992 1006.81C813.725 1004.93 814.19 999.718 816.992 995.594C818.367 993.571 819.492 991.522 819.492 991.042C819.492 990.562 821.067 988.329 822.992 986.08C824.917 983.831 826.492 981.5 826.492 980.9C826.492 979.218 815.829 979.488 815.177 981.187C814.886 981.945 815.087 983.004 815.623 983.54C816.256 984.173 815.831 985.815 814.41 988.223L812.222 991.932L809.956 987.943C808.71 985.749 807.758 983.134 807.841 982.131C807.971 980.559 807.065 980.268 801.242 980.013C795.514 979.762 794.492 979.968 794.492 981.369ZM44.3417 986.878C48.1887 991.007 48.0637 1001.59 44.1357 1004.35C39.3037 1007.73 34.7157 1004.89 33.7837 997.947C33.1067 992.9 33.9837 989.317 36.5167 986.784C39.0607 984.24 41.9157 984.274 44.3417 986.878ZM110.91 985.416C111.909 985.799 112.492 987.235 112.492 989.309C112.492 992.525 111.185 993.809 107.91 993.809C106.933 993.809 106.492 992.618 106.492 989.976C106.492 984.961 107.368 984.057 110.91 985.416ZM168.992 989.424C168.992 991.655 168.482 992.381 166.742 992.629C164.727 992.915 164.492 992.526 164.492 988.911C164.492 985.144 164.643 984.929 166.742 985.706C168.363 986.305 168.992 987.345 168.992 989.424ZM227.575 986.675C229.446 988.19 229.954 989.745 230.272 994.925C230.606 1000.38 230.354 1001.64 228.538 1003.56C223.403 1009 217.492 1004.34 217.492 994.863C217.492 986.101 222.173 982.301 227.575 986.675ZM721.292 987.009C723.211 988.928 722.683 991.801 720.242 992.724C717.166 993.886 716.492 993.262 716.492 989.25C716.492 986.603 716.907 985.809 718.292 985.809C719.282 985.809 720.632 986.349 721.292 987.009ZM288.387 995.874C286.568 996.998 286.176 996.381 287.02 993.721C287.674 991.66 287.809 991.624 288.727 993.265C289.446 994.549 289.351 995.278 288.387 995.874ZM435.782 993.809C436.172 995.302 435.812 995.809 434.363 995.809C432.732 995.809 432.592 995.49 433.492 993.809C434.081 992.709 434.719 991.809 434.911 991.809C435.102 991.809 435.494 992.709 435.782 993.809ZM549.477 995.059C549.485 995.472 548.817 995.809 547.992 995.809C546.299 995.809 546.238 995.634 547.131 993.307C547.641 991.978 547.941 991.911 548.616 992.975C549.081 993.709 549.468 994.646 549.477 995.059ZM748.295 995.663C746.803 996.233 746.187 995.038 746.976 993.102C747.657 991.43 747.758 991.444 748.465 993.309C748.882 994.409 748.806 995.468 748.295 995.663Z" fill="#005893"/>
</svg>
