<svg width="1152" height="310" viewBox="0 0 1152 310" fill="none" xmlns="http://www.w3.org/2000/svg">
<path fill-rule="evenodd" clip-rule="evenodd" d="M333 182.998V255.152L369.75 254.76C403.877 254.397 407.071 254.212 414.5 252.162C441.707 244.654 460.255 226.815 466.656 202C468.977 193.004 468.949 173.69 466.604 165.075C459.65 139.534 440.122 121.017 412.5 113.771C405.274 111.875 401.042 111.632 368.75 111.259L333 110.845V182.998ZM963.771 114.188C961.635 114.761 958.75 116.659 957.021 118.629C954.468 121.537 954 122.895 954 127.4C954 131.291 954.564 133.447 956.088 135.385C964.121 145.598 980.601 141.027 981.699 128.283C982.566 118.22 973.959 111.453 963.771 114.188ZM404.5 130.394C424.256 135.825 438.062 148.922 443.616 167.5C446.176 176.061 445.876 192.127 442.981 201.5C437.709 218.568 425.008 230.126 405.5 235.609C401.049 236.86 394.015 237.412 378.25 237.747L357 238.199V182.986V127.773L377.75 128.259C392.658 128.607 400.189 129.208 404.5 130.394ZM1119.57 131.725C1118.5 131.995 1114.34 133.718 1110.32 135.552L1103 138.886V149.443V160H1094.5H1086V167.5V175H1094.44H1102.88L1103.2 207.75C1103.48 236.935 1103.72 240.961 1105.36 244.737C1107.76 250.233 1112.53 254.351 1119.01 256.502C1125.67 258.714 1141.42 258.195 1147.75 255.555L1152 253.783V246.045V238.307L1146.75 240.121C1140.24 242.369 1132.86 242.498 1128.87 240.434C1123.41 237.608 1123 235.049 1123 203.532V175H1136H1149V167.5V160H1136H1123V145.5C1123 137.525 1122.66 131.052 1122.25 131.116C1121.84 131.18 1120.63 131.454 1119.57 131.725ZM512.105 158.583C503.889 160.792 497.414 164.785 491.247 171.447C481.479 181.997 477.237 195.231 478.276 211.906C478.936 222.487 481.242 229.681 486.48 237.5C493.935 248.628 507.035 256.11 522.378 258.004C530.578 259.016 544.497 257.529 551.668 254.874C557.476 252.725 571 244.663 571 243.351C571 242.754 565.273 232.089 564.453 231.16C564.288 230.973 561.081 232.614 557.327 234.806C547.493 240.549 543.979 241.457 531.5 241.48C521.456 241.498 520.055 241.265 515.377 238.797C506.302 234.01 499 223.325 499 214.834V212.025L535.75 211.762L572.5 211.5L572.857 208.5C573.053 206.85 572.661 201.729 571.984 197.12C569.728 181.746 560.652 167.944 548.833 161.915C539.366 157.085 523.145 155.614 512.105 158.583ZM767.603 158.643C762.101 160.332 758.777 162.201 754.75 165.869L752 168.374V164.187V160H742.5H733V235V310H743H753V280.5C753 264.275 753.241 251 753.535 251C753.83 251 755.067 251.639 756.285 252.419C764.522 257.696 783.026 259.648 794.068 256.405C811.607 251.253 824.239 237.733 827.895 220.201C830.419 208.099 828.58 192.026 823.534 182.067C819.986 175.066 811.096 165.877 804.832 162.737C793.637 157.124 778.112 155.416 767.603 158.643ZM873.919 158.833C852.687 164.376 838 184.137 838 207.161C838 221.862 842.791 233.955 852.444 243.621C862.707 253.898 873.626 257.958 891.068 257.985C906.491 258.009 917.111 253.9 927.558 243.869C937.53 234.294 942.012 223.107 941.93 208C941.795 182.9 927.912 164.532 904.54 158.53C896.701 156.517 882.242 156.66 873.919 158.833ZM1032.73 158.887C1025.99 161.117 1022.68 163.136 1018.81 167.372L1016 170.446V165.223V160H1006.5H997V207.5V255H1007H1017V220.732V186.464L1019.46 182.839C1023.21 177.333 1029.84 174.5 1039 174.5C1049.99 174.5 1055.96 178.603 1058.04 187.577C1058.54 189.735 1058.96 205.788 1058.98 223.25L1059 255H1069H1079V219.816C1079 190.961 1078.72 183.63 1077.44 179.066C1073.64 165.523 1063.28 158.071 1047.28 157.365C1040.53 157.067 1037.17 157.418 1032.73 158.887ZM581.096 179.75C585.432 190.613 594.013 212.232 600.164 227.793L611.348 256.086L617.349 255.793L623.349 255.5L631.553 233.5C636.065 221.4 641.384 207.225 643.374 202C645.363 196.775 646.992 191.938 646.995 191.25C647.01 187.358 649.281 191.699 654.319 205.25C666.628 238.36 672.786 254.186 673.725 255.125C674.266 255.666 677.311 255.972 680.493 255.804L686.277 255.5L693.167 237.5C712.758 186.315 722 161.774 722 160.933C722 160.42 717.829 160 712.731 160H703.462L695.336 181.75C690.867 193.712 685.701 207.655 683.855 212.734C682.01 217.813 680.256 221.976 679.958 221.984C679.542 221.996 662.948 179.103 657.043 162.75C656.092 160.118 655.758 160 649.274 160H642.499L632.252 186.25C626.616 200.688 621.275 214.673 620.382 217.329C619.489 219.985 618.431 221.785 618.031 221.329C617.346 220.549 600.4 176.654 596.381 165.25L594.531 160H583.871H573.211L581.096 179.75ZM957 207.5V255H967H977V207.5V160H967H957V207.5ZM534.874 173.555C543.422 176.094 550.48 184.705 551.746 194.142L552.263 198H525.52H498.777L499.472 194.297C502.641 177.403 517.842 168.497 534.874 173.555ZM788.171 175.623C794.876 177.755 801.115 183.672 804.587 191.192C807.22 196.893 807.5 198.512 807.5 208.021C807.5 217.93 807.305 218.937 804.157 225.332C798.787 236.241 790.608 241.162 777.5 241.372C767.875 241.526 761.452 239.821 756.606 235.827L753 232.854V209.004V185.153L755.626 182.033C762.378 174.008 775.169 171.489 788.171 175.623ZM902.779 175.992C923.11 184.771 928.349 218.107 911.839 233.642C905.394 239.707 900.509 241.5 890.429 241.5C882.308 241.5 880.74 241.184 875.458 238.482C864.757 233.009 859 222.284 859 207.821C859 186.503 872.252 172.218 891 173.327C894.773 173.551 899.715 174.669 902.779 175.992Z" fill="white"/>
<path fill-rule="evenodd" clip-rule="evenodd" d="M188.626 1.75C187.985 3.955 166.879 95.862 163.766 110L161.455 120.5L119.478 121.115C81.762 121.668 76.619 121.941 68.824 123.805C50.643 128.154 37.694 135.288 24.945 147.979C7.71901 165.126 0 184.836 0 211.673C0 245.626 16.199 268.541 47 278.158C54.464 280.489 54.749 280.5 106.956 280.5H159.411L171.13 226C177.575 196.025 183.906 166.775 185.198 161L187.548 150.5L220.401 150.29C238.47 150.174 253.409 149.924 253.599 149.734C253.973 149.361 260 123.024 260 121.765C260 121.344 245.375 121 227.5 121C209.625 121 195.007 120.663 195.015 120.25C195.023 119.837 195.723 116.575 196.57 113C197.418 109.425 203.271 83.325 209.578 55C215.885 26.675 221.29 2.712 221.59 1.75C222.094 0.132 220.89 0 205.635 0C190.781 0 189.084 0.175 188.626 1.75ZM285.047 117.252C276.914 119.969 271.236 129.53 272.276 138.758C273.343 148.221 280.891 154.9 291.478 155.75C299.636 156.405 305.866 153.671 309.816 147.702C312.14 144.19 312.5 142.622 312.5 136C312.5 129.395 312.138 127.806 309.839 124.333C308.374 122.119 305.454 119.485 303.339 118.469C298.728 116.256 289.807 115.662 285.047 117.252ZM153 151.199C153 151.858 148.936 171.095 143.969 193.949C139.002 216.802 134.225 238.794 133.353 242.821L131.768 250.142L98.634 249.798C67.338 249.473 65.202 249.333 60.122 247.275C48.629 242.617 41.916 235.561 37.97 223.991C35.324 216.232 34.84 201.543 36.95 193.029C42.011 172.605 56.619 157.716 76.58 152.636C85.576 150.346 86.22 150.31 120.75 150.15C145.23 150.036 153 150.289 153 151.199Z" fill="#F6B334"/>
</svg>
