<svg width="1000" height="125" viewBox="0 0 1000 125" fill="none" xmlns="http://www.w3.org/2000/svg">
<g clip-path="url(#clip0_1001_1406)">
<path d="M0.297852 2.40906H18.7813V38.507H62.4621V2.40906H80.8666V98.1437H62.4621V56.161H18.7418V98.1437H0.297852V2.40906Z" fill="black"/>
<path d="M163.841 67.8517H106.93C107.592 72.4793 109.941 76.6989 113.525 79.7001C117.413 82.7786 122.275 84.362 127.23 84.1629C130.401 84.2074 133.548 83.6151 136.485 82.4211C139.423 81.2271 142.091 79.4558 144.331 77.2119L159.3 84.2419C155.93 89.2769 151.318 93.3578 145.911 96.0903C140.121 98.8098 133.784 100.161 127.388 100.04C122.387 100.241 117.398 99.4118 112.731 97.6046C108.063 95.7975 103.817 93.0505 100.255 89.5342C96.7801 86.101 94.0446 81.9926 92.2174 77.4621C90.3903 72.9316 89.5102 68.075 89.6313 63.1914C89.4809 58.2446 90.3264 53.3181 92.1175 48.7045C93.9087 44.091 96.6089 39.8845 100.058 36.3351C103.442 32.8327 107.517 30.0725 112.025 28.2299C116.533 26.3873 121.374 25.5027 126.243 25.6321C131.266 25.4419 136.273 26.2948 140.95 28.1369C145.627 29.9791 149.871 32.7705 153.415 36.3351C156.966 40.106 159.723 44.5527 161.521 49.4107C163.319 54.2687 164.122 59.4387 163.881 64.6132L163.841 67.8517ZM146.069 53.8707C144.923 49.9576 142.47 46.556 139.118 44.234C135.654 41.787 131.51 40.4886 127.27 40.5216C122.588 40.4385 118.009 41.8955 114.236 44.6685C111.346 47.1428 109.109 50.2893 107.72 53.8312L146.069 53.8707Z" fill="black"/>
<path d="M226.52 27.3301H244.293V98.1437H226.52V90.8373C223.516 93.8331 219.98 96.2438 216.094 97.9463C212.496 99.4125 208.644 100.151 204.759 100.118C200.282 100.128 195.854 99.1852 191.768 97.3536C187.683 95.522 184.034 92.8431 181.062 89.4944C174.366 82.3404 170.774 72.8273 171.07 63.0331C170.678 53.163 174.149 43.5288 180.746 36.1769C183.701 32.8185 187.351 30.1429 191.443 28.3357C195.534 26.5284 199.97 25.6328 204.443 25.7109C208.515 25.6975 212.547 26.5174 216.291 28.12C220.119 29.7872 223.592 32.1737 226.52 35.1501V27.3301ZM207.839 41.9036C205.279 41.8418 202.736 42.3279 200.379 43.3292C198.022 44.3305 195.907 45.8238 194.174 47.7093C190.637 51.9103 188.698 57.2255 188.698 62.7172C188.698 68.2089 190.637 73.5241 194.174 77.7251C195.894 79.6341 198.005 81.151 200.363 82.1732C202.72 83.1953 205.27 83.6987 207.839 83.6493C210.43 83.7215 213.006 83.241 215.396 82.24C217.786 81.2389 219.936 79.7402 221.702 77.8436C225.509 73.7007 227.525 68.2212 227.31 62.5987C227.421 59.8624 226.989 57.1313 226.04 54.5624C225.091 51.9936 223.644 49.6377 221.781 47.6303C219.996 45.753 217.835 44.2727 215.44 43.286C213.045 42.2993 210.468 41.8283 207.879 41.9036H207.839Z" fill="black"/>
<path d="M257.012 0H274.705V98.1438H257.012V0Z" fill="black"/>
<path d="M318.663 83.7677C322.685 83.7326 326.679 83.0936 330.511 81.872V91.6666C326.276 95.8147 320.639 98.2245 314.713 98.4202C300.022 98.4202 293.702 89.7709 293.702 79.8973V42.575H284.658V27.2906H293.781V9.04419H311.554V27.2906H330.906V42.575H311.554V72.7093C311.475 78.9889 312.028 83.7677 318.663 83.7677Z" fill="black"/>
<path d="M342.988 0H360.603V34.4787C363.718 31.6746 367.248 29.3698 371.069 27.6461C374.431 26.1727 378.061 25.4064 381.732 25.3949C385.039 25.3188 388.325 25.9287 391.384 27.1862C394.443 28.4438 397.208 30.3217 399.505 32.7014C401.71 35.249 403.39 38.2075 404.447 41.4068C405.505 44.606 405.919 47.9828 405.666 51.3428V98.1438H388.17V67.1406C388.368 61.5587 387.971 55.9716 386.985 50.4739C386.442 47.9182 385.05 45.6214 383.036 43.9573C381.005 42.4941 378.547 41.7442 376.045 41.8246C372.599 41.752 369.263 43.0437 366.764 45.4186C364.025 48.0972 362.153 51.5371 361.393 55.2923C360.676 60.1149 360.412 64.9939 360.603 69.8657V98.3017H342.988V0Z" fill="black"/>
<path d="M512.817 19.1548L500.06 31.2796C496.432 27.0587 491.953 23.6522 486.916 21.2836C481.88 18.915 476.399 17.6378 470.834 17.5355C466.625 17.4729 462.444 18.2407 458.531 19.7952C454.619 21.3496 451.051 23.6602 448.032 26.5947C445.013 29.5292 442.602 33.0301 440.938 36.8971C439.273 40.7641 438.387 44.9214 438.33 49.1311V50.079C438.148 55.9869 439.51 61.8402 442.28 67.0616C445.001 72.0732 449.117 76.1886 454.128 78.9099C459.379 81.7224 465.275 83.1112 471.229 82.9384C476.218 83.0064 481.162 81.996 485.724 79.9763C491.126 77.2593 496.006 73.6092 500.139 69.1943L512.501 82.0695C506.764 88.0379 499.976 92.8979 492.477 96.406C485.645 99.1716 478.321 100.515 470.953 100.355C464.223 100.602 457.513 99.4757 451.232 97.0448C444.951 94.614 439.231 90.9297 434.42 86.2164C429.693 81.4696 425.992 75.8019 423.546 69.5651C421.1 63.3283 419.962 56.6554 420.202 49.9605C420.128 41.0951 422.419 32.3702 426.837 24.684C431.282 17.1425 437.7 10.9567 445.4 6.79305C453.282 2.34447 462.178 0.00471662 471.229 0C479.127 0.0373704 486.925 1.76629 494.099 5.07038C501.273 8.37447 507.655 13.177 512.817 19.1548Z" fill="#1B6383"/>
<path d="M572.966 27.3301H590.699V98.1437H572.966V90.8373C569.961 93.8331 566.425 96.2438 562.539 97.9463C558.941 99.4125 555.089 100.151 551.204 100.118C546.727 100.128 542.299 99.1852 538.214 97.3536C534.128 95.522 530.479 92.8431 527.507 89.4944C520.812 82.3404 517.219 72.8273 517.515 63.0331C517.123 53.163 520.594 43.5288 527.191 36.1769C530.146 32.8185 533.796 30.1429 537.888 28.3357C541.98 26.5284 546.416 25.6328 550.888 25.7109C554.961 25.6975 558.993 26.5174 562.736 28.12C566.618 29.8422 570.131 32.2961 573.084 35.3475L572.966 27.3301ZM554.285 41.9036C551.725 41.8418 549.181 42.3279 546.824 43.3292C544.468 44.3305 542.352 45.8238 540.62 47.7093C536.946 51.7785 535.005 57.1204 535.209 62.5987C535.002 68.1582 536.988 73.5765 540.738 77.6856C542.458 79.5946 544.569 81.1115 546.926 82.1337C549.284 83.1558 551.834 83.6592 554.403 83.6098C556.993 83.6744 559.566 83.1905 561.956 82.1899C564.345 81.1893 566.495 79.6947 568.266 77.8041C572.022 73.6381 573.994 68.1639 573.755 62.5592C573.873 59.8254 573.449 57.0953 572.507 54.5263C571.565 51.9573 570.123 49.6001 568.266 47.5908C566.47 45.7196 564.3 44.2464 561.899 43.2667C559.497 42.287 556.917 41.8226 554.324 41.9036H554.285Z" fill="#1B6383"/>
<path d="M603.379 27.33H618.624V42.2984C621.177 36.8164 625.144 32.1133 630.117 28.6728C638.924 23.4595 648.245 30.529 648.245 30.529V45.3C645.3 44.2283 642.158 43.8075 639.036 44.0665C635.913 44.3256 632.884 45.2584 630.156 46.8008C624.074 50.7502 621.033 57.5038 621.033 67.3774V98.1436H603.379V27.33Z" fill="#1B6383"/>
<path d="M726.285 67.8515H669.255C669.917 72.479 672.266 76.6987 675.85 79.6998C679.667 82.8116 684.474 84.4511 689.397 84.3207C692.567 84.3651 695.715 83.7728 698.652 82.5788C701.589 81.3848 704.257 79.6135 706.498 77.3696L721.466 84.3996C718.096 89.4347 713.485 93.5155 708.078 96.248C702.274 98.9681 695.923 100.319 689.515 100.197C684.514 100.398 679.525 99.5695 674.858 97.7624C670.191 95.9552 665.944 93.2082 662.383 89.6919C658.948 86.2466 656.252 82.1372 654.459 77.6146C652.666 73.0921 651.815 68.2514 651.956 63.3886C651.803 58.4322 652.651 53.4959 654.45 48.8747C656.248 44.2535 658.959 40.0423 662.422 36.4928C665.806 32.9904 669.881 30.2302 674.389 28.3876C678.897 26.545 683.739 25.6604 688.607 25.7898C693.636 25.5941 698.652 26.4443 703.336 28.2866C708.02 30.1289 712.27 32.9232 715.819 36.4928C719.363 40.2688 722.115 44.7164 723.912 49.5731C725.71 54.4298 726.516 59.5974 726.285 64.7709V67.8515ZM708.512 53.8704C707.366 49.9573 704.913 46.5557 701.561 44.2338C698.097 41.7868 693.953 40.4883 689.713 40.5213C685.031 40.4382 680.452 41.8952 676.68 44.6682C673.79 47.1425 671.552 50.289 670.163 53.8309L708.512 53.8704Z" fill="#1B6383"/>
<path d="M748.204 99.052C747.253 99.0707 746.309 98.8906 745.431 98.5234C744.554 98.1561 743.763 97.6098 743.109 96.9193C741.746 95.5501 740.981 93.697 740.981 91.7653C740.981 89.8335 741.746 87.9804 743.109 86.6112C744.456 85.2679 746.281 84.5135 748.184 84.5135C750.087 84.5135 751.912 85.2679 753.259 86.6112C754.622 87.9804 755.387 89.8335 755.387 91.7653C755.387 93.697 754.622 95.5501 753.259 96.9193C752.605 97.6098 751.814 98.1561 750.937 98.5234C750.06 98.8906 749.115 99.0707 748.164 99.052H748.204Z" fill="black"/>
<path d="M808.908 124.96C803.433 125.034 797.984 124.18 792.795 122.433C788.519 121.016 784.589 118.715 781.262 115.679C777.987 112.392 775.313 108.555 773.363 104.344H781.539C784.096 108.664 787.801 112.191 792.242 114.534C797.28 116.982 802.835 118.174 808.434 118.009C814.016 118.167 819.551 116.946 824.548 114.455C828.551 112.471 831.857 109.317 834.027 105.411C836.266 99.9325 837.239 94.0189 836.87 88.1121V82.3459L835.449 84.1231C832.181 88.2981 827.972 91.6408 823.166 93.8783C817.891 96.3272 812.108 97.4828 806.297 97.2493C800.486 97.0157 794.815 95.3998 789.753 92.5355C784.331 89.5599 779.835 85.1456 776.76 79.7788C773.72 74.4085 772.14 68.3352 772.178 62.1642C772.22 52.6692 776.005 43.5738 782.711 36.8523C789.418 30.1309 798.505 26.3261 808 26.2637C812.998 26.2263 817.939 27.3199 822.455 29.4628C827.477 32.0634 831.902 35.6816 835.449 40.0868L836.831 41.7061V28.0805H844.374V83.6887C844.69 90.9552 843.823 98.2248 841.807 105.213C839.626 111.378 835.33 116.569 829.682 119.866C823.321 123.425 816.116 125.199 808.829 125L808.908 124.96ZM809.224 33.4122C804.054 33.424 798.976 34.7853 794.493 37.3617C790.018 39.8543 786.316 43.5297 783.79 47.9857C781.215 52.4405 779.853 57.4927 779.84 62.6382C779.731 66.2956 780.376 69.9363 781.735 73.3336C783.094 76.7309 785.138 79.8121 787.739 82.3854C793.492 87.3971 800.864 90.1579 808.494 90.1579C816.123 90.1579 823.495 87.3971 829.248 82.3854C831.88 79.7037 833.939 76.5134 835.297 73.0095C836.655 69.5056 837.284 65.7616 837.147 62.0062C837.249 56.9143 836.039 51.8817 833.632 47.3933C831.235 43.1022 827.694 39.561 823.403 37.1642C819.079 34.6198 814.162 33.2577 809.145 33.2148L809.224 33.4122Z" fill="black"/>
<path d="M895.437 99.0521C890.572 99.2069 885.73 98.3216 881.235 96.4554C876.74 94.5893 872.695 91.7852 869.37 88.2306C862.975 81.4386 859.367 72.4896 859.265 63.1608C859.163 53.832 862.572 44.806 868.817 37.8752C875.329 30.8338 884.37 26.6662 893.953 26.2885C903.537 25.9108 912.878 29.3539 919.923 35.8609C920.634 36.5323 921.306 37.1643 921.937 37.8752C928.205 44.8106 931.629 53.8532 931.526 63.2005C931.424 72.5478 927.803 81.5132 921.385 88.3096C918.078 91.8663 914.048 94.6726 909.565 96.5394C905.082 98.4061 900.251 99.2899 895.397 99.1311L895.437 99.0521ZM895.437 33.5703C891.669 33.5347 887.935 34.2856 884.473 35.7749C881.012 37.2642 877.899 39.4591 875.334 42.2195C872.606 44.9772 870.46 48.2543 869.022 51.8566C867.583 55.4588 866.883 59.3131 866.961 63.1911C866.987 68.3473 868.348 73.4089 870.911 77.8831C873.328 82.2801 876.908 85.928 881.258 88.4281C885.626 90.8738 890.549 92.158 895.555 92.158C900.561 92.158 905.484 90.8738 909.852 88.4281C914.203 85.928 917.782 82.2801 920.2 77.8831C922.763 73.4089 924.123 68.3473 924.149 63.1911C924.209 59.3299 923.495 55.4957 922.05 51.9144C920.606 48.3332 918.459 45.0771 915.737 42.338C913.179 39.5894 910.079 37.4015 906.632 35.9127C903.186 34.4239 899.468 33.6666 895.713 33.6887L895.437 33.5703Z" fill="black"/>
<path d="M968.027 97.196H967.355L935.483 28.0017H943.422L966.96 79.147L967.711 80.6873L968.422 79.147L991.684 28.0017H999.701L968.027 97.196Z" fill="black"/>
</g>
<defs>
<clipPath id="clip0_1001_1406">
<rect width="1000" height="125" fill="white"/>
</clipPath>
</defs>
</svg>
