<?xml version="1.0" encoding="UTF-8"?>
<svg xmlns="http://www.w3.org/2000/svg" viewBox="0 0 128.82 37.81">
  <defs>
    <style>.cls-1{fill:#1dd4d7;}.cls-2{fill:#fff;}</style>
  </defs>
  <g id="Capa_2" data-name="Capa 2">
    <g id="Capa_1-2" data-name="Capa 1">
      <g id="Grupo_28" data-name="Grupo 28">
        <path id="Trazado_1" data-name="Trazado 1" class="cls-1" d="M65,18.8a11.07,11.07,0,0,1-22.13,0A11.07,11.07,0,0,1,65,18.8"></path>
        <path id="Trazado_2" data-name="Trazado 2" class="cls-2" d="M11,8.13a10.63,10.63,0,0,0-9,4.4V8.61H0v29.2H2V25.16c2,2.84,5.82,4.32,9,4.32a10.65,10.65,0,0,0,11.08-10.2c0-.16,0-.32,0-.47A10.66,10.66,0,0,0,11.45,8.12H11m9.13,10.68a8.81,8.81,0,0,1-8.74,8.87H11a9.28,9.28,0,0,1-6.52-2.53,8.63,8.63,0,0,1-2.62-6.3A9,9,0,0,1,4.38,12.5a9.29,9.29,0,0,1,6.48-2.56c4.56,0,9.2,3,9.25,8.83Z"></path>
        <path id="Trazado_3" data-name="Trazado 3" class="cls-2" d="M34.93,8.1l-.48,0a8.31,8.31,0,0,0-6.66,3.07V8.61H25.84V29h1.95V17.89c0-5,2.33-7.91,6.39-7.91h.74Z"></path>
        <path id="Trazado_4" data-name="Trazado 4" class="cls-2" d="M86.06,8.13a10.64,10.64,0,0,0-9,4.4V8.61h-2v29.2h2V25.16a11.39,11.39,0,0,0,9,4.33A10.66,10.66,0,0,0,97.14,19.28c0-.16,0-.32,0-.47A10.66,10.66,0,0,0,86.53,8.12h-.47m9.13,10.68a8.81,8.81,0,0,1-8.74,8.87h-.39a9.28,9.28,0,0,1-6.52-2.53,8.63,8.63,0,0,1-2.62-6.3,8.91,8.91,0,0,1,2.54-6.33,9.25,9.25,0,0,1,6.48-2.57c4.56,0,9.2,3,9.25,8.83Z"></path>
        <rect id="Rectángulo_241" data-name="Rectángulo 241" class="cls-2" x="100.92" width="1.95" height="4.21"></rect>
        <rect id="Rectángulo_242" data-name="Rectángulo 242" class="cls-2" x="100.92" y="8.61" width="1.95" height="20.4"></rect>
        <path id="Trazado_5" data-name="Trazado 5" class="cls-2" d="M117.73,8.13c-6.32,0-11.09,4.57-11.09,10.64v0c0,6.08,4.77,10.68,11.09,10.68s11.09-4.6,11.09-10.68S124.05,8.13,117.73,8.13m9.14,10.68a8.82,8.82,0,0,1-8.74,8.87h-.4a8.78,8.78,0,0,1-9.13-8.43c0-.13,0-.26,0-.4v0a8.82,8.82,0,0,1,8.75-8.88h.39a8.81,8.81,0,0,1,9.13,8.47c0,.13,0,.26,0,.4"></path>
        <path id="Trazado_6" data-name="Trazado 6" class="cls-2" d="M54,2.11c-9.88,0-17.33,7.15-17.33,16.63v.06c0,9.52,7.45,16.7,17.33,16.7s17.34-7.18,17.34-16.7S63.86,2.11,54,2.11M69.26,18.8c0,8.46-6.57,14.84-15.29,14.84S38.68,27.29,38.68,18.86V18.8C38.68,10.35,45.26,4,54,4S69.26,10.35,69.26,18.8"></path>
      </g>
    </g>
  </g>
</svg>
