<svg width="993" height="288" viewBox="0 0 993 288" fill="none" xmlns="http://www.w3.org/2000/svg">
<path fill-rule="evenodd" clip-rule="evenodd" d="M87.6205 2.18755C43.1605 13.9436 12.0295 45.0105 2.0615 87.5705C-0.689499 99.3175 -0.686499 125.856 2.0665 137.341C9.2375 167.248 28.8495 193.9 54.8385 209.055C66.4855 215.848 79.0215 220.535 94.6205 223.931C98.1765 224.706 106.932 225.221 116.12 225.197C130.183 225.16 132.697 224.87 143.229 222.073C157.976 218.157 169.01 213.37 179.73 206.238C208.326 187.21 225.321 159.207 230.249 122.996C232.662 105.266 228.665 83.1965 219.611 64.2675C205.077 33.8815 180.982 13.7176 146.564 3.13555C138.239 0.575551 136.201 0.365551 117.12 0.0965512C98.1895 -0.169449 95.9315 -0.00944901 87.6205 2.18755ZM447.756 10.4796C446.931 11.3056 447.147 90.6796 448.118 143.282C448.753 177.7 448.953 180.716 450.975 186.503C457.682 205.692 471.271 217.82 492.121 223.224C495.696 224.151 504.255 225.166 511.141 225.48C521.918 225.971 525.051 225.734 533.641 223.779C548.033 220.503 548.108 220.454 548.18 214.371C548.362 198.815 548.066 176.394 547.673 176.002C547.423 175.752 543.278 176.329 538.461 177.285C522.037 180.544 510.67 177.38 506.121 168.282C503.642 163.325 503.618 163.023 503.316 132.82C503.148 116.066 503.24 101.441 503.522 100.32C504.016 98.3465 504.729 98.2815 525.826 98.2815H547.62V75.7815V53.2816L525.87 53.0116L504.121 52.7425L504.11 35.0116C504.104 25.2606 503.82 15.5946 503.479 13.5316L502.859 9.78155H475.657C460.695 9.78155 448.14 10.0956 447.756 10.4796ZM336.526 52.2666C326.165 54.5206 313.952 60.4636 305.453 67.3866C303.16 69.2536 301.04 70.7815 300.742 70.7815C300.443 70.7815 300.069 66.8446 299.91 62.0316L299.621 53.2816H272.621H245.62L245.367 170.532L245.113 287.782H273.617H302.121V247.25V206.717L307.371 210.681C314.527 216.083 325.922 221.33 336.051 223.887C348.585 227.052 364.105 226.299 377.121 221.894C407.008 211.781 427.346 187.288 433.562 153.922C442 108.638 413.847 63.0756 371.097 52.8276C361.204 50.4556 345.984 50.2086 336.526 52.2666ZM817.982 53.1296C810.142 55.7526 802.093 60.8755 796.31 66.9235L792.142 71.2815L792.131 63.2316C792.124 58.3176 791.653 54.7146 790.92 53.9816C790.05 53.1116 782.784 52.7816 764.503 52.7816C750.633 52.7816 738.572 53.0545 737.702 53.3885C736.277 53.9355 736.12 62.2936 736.12 137.689C736.12 201.45 736.406 221.668 737.32 222.582C738.679 223.941 788.713 224.328 790.807 222.997C791.693 222.433 792.073 208.421 792.307 167.762C792.65 108.07 792.31 111.463 798.709 103.858C804.294 97.2205 814.587 94.8605 822.866 98.3195C827.455 100.238 829.666 102.193 833 107.282L835.62 111.282L835.87 165.282C836.007 194.982 836.352 220.294 836.638 221.532L837.159 223.782H864.532C888.571 223.782 891.98 223.589 892.513 222.2C892.847 221.33 893.12 196.632 893.12 167.314V114.01L895.914 108.663C899.863 101.105 905.287 97.4936 913.474 96.9715C920.587 96.5185 925.563 98.4295 930.318 103.44C936.723 110.189 936.591 108.895 936.91 168.434L937.201 222.585L939.41 223.119C940.626 223.413 952.982 223.695 966.87 223.747L992.12 223.84V162.021C992.12 93.0826 992.262 94.7406 985.164 80.2355C979.157 67.9606 969.417 59.1215 956.341 54.0765C950.945 51.9955 947.344 51.3916 938.073 51.0166C924.741 50.4776 915.178 52.5036 904.694 58.0876C898.148 61.5746 888.375 70.0675 886.172 74.1845C885.407 75.6135 884.521 76.7695 884.201 76.7555C883.881 76.7415 882.052 74.4175 880.133 71.5915C874.086 62.6805 863.21 55.4886 850.781 52.1796C842.54 49.9856 825.943 50.4656 817.982 53.1296ZM134.383 56.0236C151.979 62.5776 165.755 79.2495 169.682 98.7445C175.24 126.329 163.617 153.391 141.141 165.202C124.815 173.781 105.744 173.776 88.6525 165.188C77.3645 159.516 66.0135 145.605 61.8365 132.324C58.6545 122.204 58.6535 102.355 61.8355 92.2395C67.4035 74.5435 81.3795 60.7926 100.092 54.5976C108.289 51.8836 125.151 52.5856 134.383 56.0236ZM562.526 53.9336C562.124 54.5846 561.879 80.6615 561.982 111.882C562.19 175.118 562.343 176.766 569.299 190.096C573.497 198.141 586.568 211.217 594.62 215.429C625.118 231.379 664.936 230.28 691.484 212.755C706.364 202.933 716.487 187.331 719.112 170.178C719.782 165.793 720.067 143.252 719.893 108.282L719.62 53.2816L692.688 53.0146C674.601 52.8356 665.404 53.0986 664.688 53.8146C663.961 54.5416 663.585 72.1636 663.51 109.082C663.412 157.539 663.221 163.704 661.712 167.268C658.148 175.688 651.565 179.724 641.339 179.76C634.241 179.785 628.948 177.937 624.781 173.979C618.382 167.901 618.668 170.681 618.12 109.282L617.62 53.2816L590.439 53.0156C570.336 52.8186 563.067 53.0576 562.526 53.9336ZM355.492 100.094C371.673 107.502 380.978 125.728 378.22 144.61C376.168 158.66 367.688 170.931 356.615 175.872C346.659 180.315 333.895 180.152 323.799 175.453C317.908 172.712 309.866 165.085 307.009 159.531C301.057 147.961 300.602 130.65 305.956 119.459C310.753 109.432 319.629 101.703 330.407 98.1675C336.775 96.0785 348.726 96.9965 355.492 100.094Z" fill="#FD6129"/>
</svg>
