<svg class="h-[36px] w-[109px] md:h-[65px] md:w-[197px]" xmlns="http://www.w3.org/2000/svg" viewBox="0 0 436 144.1"><defs><clipPath id="ars-full_svg__a"><path fill="none" d="M0 0h436v144.1H0z"></path></clipPath><clipPath id="ars-full_svg__b"><path fill="none" d="M0 0h436v144.1H0z"></path></clipPath></defs><g clip-path="url(#ars-full_svg__a)"><g fill="none" clip-path="url(#ars-full_svg__b)"><path fill="#ff4e00" d="M72 0c39.8 0 72.1 32.3 72.1 72.1s-32.3 72.1-72.1 72.1S0 111.8 0 72.1 32.3 0 72 0"></path><path fill="#1f2937" d="m46.5 94-.9-5.9c-4 4.4-9.6 6.8-15.6 6.8-8 0-13-4.8-13-12.3 0-11 9.4-15.4 27.8-17.3v-1.9c0-5.6-3.3-7.5-8.4-7.5s-10.5 1.7-15.3 3.8L20 52.6c5.3-2.1 10.3-3.7 17.1-3.7 10.7 0 15.9 4.3 15.9 14.2v30.8h-6.7Zm-1.6-22.4c-16.3 1.6-19.7 6-19.7 10.6s2.4 5.9 6.6 5.9 9.4-2.4 13.1-6.2zm27.3-3.7v26H64v-44h6.6l1.4 9c3.1-5 8.2-9.5 15.5-9.9l1.3 7.9c-7.4.3-13.6 5.2-16.6 11m37.2 26.9c-5.6-.1-11.1-1.6-16.1-4.2l1.2-7.8c4.6 3.2 10 5 15.6 5.1 5.6 0 9-2.1 9-5.8s-2.5-5.6-10.5-7.5C98.2 72 94.1 68.9 94.1 61s5.9-12.2 15.6-12.2c5 0 9.9 1 14.5 3l-1.3 7.8c-4.1-2.4-8.7-3.7-13.4-3.8-5 0-7.6 1.9-7.6 5.1s2.2 4.6 9.2 6.4c10.9 2.8 15.8 5.9 15.8 14.3s-6.1 13.2-17.5 13.2m109.4-11.1c-4.4 3.7-8.4 5-12.8 5-7.7 0-12.7-5.3-13.5-14h24.8l.9-5.5h-25.7c.8-8.7 5.7-14.1 12.9-14.1s8.8 1.7 12.9 5.1l1-5.9c-4-2.9-8.8-4.4-13.7-4.3-10.7 0-19.2 7.8-19.2 21.9s8.3 21.9 18.9 21.9c5.2.1 10.2-1.6 14.3-4.8zm-48.7-27.5v36.9h-5.8V56.2h-13.4v-5.3H183l.9 5.3H170Zm74.5 37.6c-11.9 0-19.5-8.8-19.5-21.8s7.8-22 19.6-22c4.3-.1 8.5 1.1 12 3.5l-.9 5.9c-3.2-2.6-7.1-4-11.2-4.1-8.6 0-13.6 6.5-13.6 16.6s5.1 16.6 13.6 16.6c4.3 0 8.5-1.6 11.9-4.2l.9 5.4c-3.7 2.6-8.2 4.1-12.8 4.1M292 93V73.5h-21.4V93h-5.8V50.9h5.8v17.5H292V50.9h5.8V93zm42.9 0-23.2-32.8V93h-5.3V50.9h5.1l22.4 31.5V50.9h5.3V93zm13.4-42.1h5.8V93h-5.8zm32.6 42.9c-11.9 0-19.5-8.8-19.5-21.8s7.8-22 19.6-22c4.3-.1 8.5 1.1 12 3.5l-.9 5.9c-3.2-2.6-7.1-4-11.2-4.1-8.6 0-13.6 6.5-13.6 16.6s5.1 16.6 13.6 16.6c4.3 0 8.5-1.6 11.9-4.2l.9 5.4c-3.7 2.6-8.2 4.1-12.8 4.1m32.9-43.1h5.8l16.3 41.5-5.6 1.2-5-13.1h-17.4L403.1 93h-5.8zm-4 24.6h13.5l-6.8-17.9z"></path></g></g></svg>
