<svg width="1875" height="514" viewBox="0 0 1875 514" fill="none" xmlns="http://www.w3.org/2000/svg">
<path d="M0 21.3583C0 9.56245 9.56242 0 21.3583 0H128.15V153.78H21.3583C9.56242 153.78 0 144.217 0 132.421V21.3583Z" fill="#FC0000"/>
<path d="M434 21.3583C434 9.56245 424.438 0 412.642 0H305.85V153.78H412.642C424.438 153.78 434 144.217 434 132.421V21.3583Z" fill="#0095FE"/>
<path d="M128.15 153.78H217V329.772H128.15V153.78Z" fill="#FF8100"/>
<path d="M128.15 0H217V153.78H128.15V0Z" fill="#FF4900"/>
<path d="M128.15 329.772H217V505.764H149.508C137.712 505.764 128.15 496.201 128.15 484.406V329.772Z" fill="#FFB601"/>
<path d="M217 153.78H305.85V329.772H217V153.78Z" fill="#15C58E"/>
<path d="M217 0H305.85V153.78H217V0Z" fill="#3CBB0E"/>
<path d="M217 329.772H305.85V484.406C305.85 496.201 296.288 505.764 284.492 505.764H217V329.772Z" fill="#8831F9"/>
<path d="M596.006 198.766V235.338H492.559V505.764H450.344V235.338H346.896V198.766H596.006Z" fill="black"/>
<path d="M612.114 197.721H649.732V312.244C658.648 300.959 666.659 293.018 673.765 288.42C685.886 280.479 701.002 276.508 719.114 276.508C751.577 276.508 773.59 287.863 785.153 310.572C791.423 322.972 794.558 340.179 794.558 362.192V505.764H755.896V364.699C755.896 348.259 753.806 336.208 749.626 328.545C742.799 316.285 729.982 310.154 711.173 310.154C695.569 310.154 681.428 315.518 668.749 326.246C656.071 336.974 649.732 357.246 649.732 387.061V505.764H612.114V197.721Z" fill="black"/>
<path d="M926.444 276.926C942.326 276.926 957.722 280.688 972.629 288.211C987.537 295.595 998.892 305.208 1006.69 317.051C1014.22 328.336 1019.23 341.502 1021.74 356.549C1023.97 366.859 1025.08 383.299 1025.08 405.869H861.031C861.728 428.579 867.092 446.83 877.123 460.623C887.155 474.277 902.689 481.104 923.727 481.104C943.371 481.104 959.045 474.625 970.748 461.668C977.436 454.145 982.173 445.437 984.959 435.545H1021.95C1020.97 443.765 1017.7 452.96 1012.13 463.131C1006.69 473.162 1000.56 481.382 993.737 487.791C982.312 498.937 968.171 506.46 951.313 510.361C942.257 512.591 932.017 513.705 920.592 513.705C892.727 513.705 869.112 503.604 849.746 483.402C830.38 463.061 820.698 434.639 820.698 398.137C820.698 362.192 830.45 333.003 849.955 310.572C869.461 288.141 894.957 276.926 926.444 276.926ZM986.422 375.984C984.89 359.684 981.337 346.657 975.764 336.904C965.454 318.792 948.248 309.736 924.145 309.736C906.869 309.736 892.379 316.006 880.676 328.545C868.973 340.945 862.773 356.758 862.076 375.984H986.422Z" fill="black"/>
<path d="M1147.57 276.926C1163.45 276.926 1178.84 280.688 1193.75 288.211C1208.66 295.595 1220.01 305.208 1227.82 317.051C1235.34 328.336 1240.35 341.502 1242.86 356.549C1245.09 366.859 1246.21 383.299 1246.21 405.869H1082.15C1082.85 428.579 1088.21 446.83 1098.25 460.623C1108.28 474.277 1123.81 481.104 1144.85 481.104C1164.49 481.104 1180.17 474.625 1191.87 461.668C1198.56 454.145 1203.29 445.437 1206.08 435.545H1243.07C1242.1 443.765 1238.82 452.96 1233.25 463.131C1227.82 473.162 1221.69 481.382 1214.86 487.791C1203.43 498.937 1189.29 506.46 1172.43 510.361C1163.38 512.591 1153.14 513.705 1141.71 513.705C1113.85 513.705 1090.23 503.604 1070.87 483.402C1051.5 463.061 1041.82 434.639 1041.82 398.137C1041.82 362.192 1051.57 333.003 1071.08 310.572C1090.58 288.141 1116.08 276.926 1147.57 276.926ZM1207.54 375.984C1206.01 359.684 1202.46 346.657 1196.89 336.904C1186.58 318.792 1169.37 309.736 1145.27 309.736C1127.99 309.736 1113.5 316.006 1101.8 328.545C1090.1 340.945 1083.9 356.758 1083.2 375.984H1207.54Z" fill="black"/>
<path d="M1275.48 281.942H1312.68V313.707C1321.6 302.701 1329.68 294.69 1336.92 289.674C1349.32 281.175 1363.39 276.926 1379.14 276.926C1396.97 276.926 1411.32 281.315 1422.19 290.092C1428.32 295.108 1433.89 302.492 1438.91 312.244C1447.27 300.262 1457.09 291.415 1468.37 285.703C1479.66 279.852 1492.34 276.926 1506.41 276.926C1536.5 276.926 1556.98 287.793 1567.85 309.527C1573.7 321.231 1576.63 336.974 1576.63 356.758V505.764H1537.55V350.279C1537.55 335.372 1533.79 325.132 1526.26 319.559C1518.88 313.986 1509.82 311.199 1499.09 311.199C1484.33 311.199 1471.58 316.145 1460.85 326.037C1450.26 335.929 1444.97 352.439 1444.97 375.567V505.764H1406.72V359.684C1406.72 344.498 1404.91 333.421 1401.29 326.455C1395.58 316.006 1384.92 310.781 1369.31 310.781C1355.1 310.781 1342.15 316.285 1330.44 327.291C1318.88 338.298 1313.1 358.221 1313.1 387.061V505.764H1275.48V281.942Z" fill="black"/>
<path d="M1643.73 446.203C1643.73 457.07 1647.7 465.639 1655.64 471.908C1663.58 478.178 1672.99 481.313 1683.85 481.313C1697.09 481.313 1709.91 478.248 1722.31 472.117C1743.2 461.947 1753.65 445.298 1753.65 422.17V391.867C1749.06 394.793 1743.14 397.231 1735.89 399.182C1728.65 401.132 1721.54 402.526 1714.57 403.361L1691.79 406.287C1678.14 408.098 1667.9 410.955 1661.07 414.856C1649.51 421.404 1643.73 431.853 1643.73 446.203ZM1734.85 370.133C1743.48 369.018 1749.27 365.396 1752.19 359.266C1753.86 355.922 1754.7 351.115 1754.7 344.846C1754.7 332.028 1750.1 322.763 1740.91 317.051C1731.85 311.199 1718.82 308.274 1701.83 308.274C1682.18 308.274 1668.25 313.568 1660.03 324.156C1655.43 330.008 1652.44 338.716 1651.04 350.279H1615.93C1616.63 322.693 1625.55 303.537 1642.68 292.809C1659.96 281.942 1679.95 276.508 1702.66 276.508C1728.99 276.508 1750.38 281.524 1766.82 291.555C1783.12 301.586 1791.27 317.19 1791.27 338.367V467.311C1791.27 471.212 1792.04 474.346 1793.57 476.715C1795.24 479.083 1798.66 480.268 1803.81 480.268C1805.48 480.268 1807.36 480.198 1809.45 480.059C1811.54 479.78 1813.77 479.432 1816.14 479.014V506.809C1810.29 508.481 1805.83 509.526 1802.77 509.943C1799.7 510.361 1795.52 510.57 1790.23 510.57C1777.27 510.57 1767.86 505.973 1762.01 496.777C1758.95 491.901 1756.79 485.005 1755.53 476.088C1747.87 486.119 1736.87 494.827 1722.52 502.211C1708.16 509.595 1692.35 513.287 1675.08 513.287C1654.32 513.287 1637.32 507.018 1624.08 494.479C1610.99 481.8 1604.44 465.987 1604.44 447.039C1604.44 426.28 1610.92 410.188 1623.87 398.764C1636.83 387.339 1653.83 380.304 1674.87 377.656L1734.85 370.133Z" fill="black"/>
<path d="M1837.06 198.766H1874.67V505.764H1837.06V198.766Z" fill="black"/>
</svg>
