<svg width="1654" height="514" viewBox="0 0 1654 514" fill="none" xmlns="http://www.w3.org/2000/svg">
<path d="M0 21.3583C0 9.56245 9.56242 0 21.3583 0H128.15V153.78H21.3583C9.56242 153.78 0 144.217 0 132.421V21.3583Z" fill="#FC0000"/>
<path d="M434 21.3583C434 9.56245 424.438 0 412.642 0H305.85V153.78H412.642C424.438 153.78 434 144.217 434 132.421V21.3583Z" fill="#0095FE"/>
<path d="M128.15 153.78H217V329.772H128.15V153.78Z" fill="#FF8100"/>
<path d="M128.15 0H217V153.78H128.15V0Z" fill="#FF4900"/>
<path d="M128.15 329.772H217V505.764H149.508C137.712 505.764 128.15 496.201 128.15 484.406V329.772Z" fill="#FFB601"/>
<path d="M217 153.78H305.85V329.772H217V153.78Z" fill="#15C58E"/>
<path d="M217 0H305.85V153.78H217V0Z" fill="#3CBB0E"/>
<path d="M217 329.772H305.85V484.406C305.85 496.201 296.288 505.764 284.492 505.764H217V329.772Z" fill="#8831F9"/>
<path d="M596.006 198.766V235.338H492.559V505.764H450.344V235.338H346.896V198.766H596.006Z" fill="black"/>
<path d="M612.114 197.721H649.732V312.244C658.648 300.959 666.659 293.018 673.765 288.42C685.886 280.479 701.002 276.508 719.114 276.508C751.577 276.508 773.59 287.863 785.153 310.572C791.423 322.972 794.558 340.179 794.558 362.192V505.764H755.896V364.699C755.896 348.259 753.806 336.208 749.626 328.545C742.799 316.285 729.982 310.154 711.173 310.154C695.569 310.154 681.428 315.518 668.749 326.246C656.071 336.974 649.732 357.246 649.732 387.061V505.764H612.114V197.721Z" fill="black"/>
<path d="M926.444 276.926C942.326 276.926 957.722 280.688 972.629 288.211C987.537 295.595 998.892 305.208 1006.69 317.051C1014.22 328.336 1019.23 341.502 1021.74 356.549C1023.97 366.859 1025.08 383.299 1025.08 405.869H861.031C861.728 428.579 867.092 446.83 877.123 460.623C887.155 474.277 902.689 481.104 923.727 481.104C943.371 481.104 959.045 474.625 970.748 461.668C977.436 454.145 982.173 445.437 984.959 435.545H1021.95C1020.97 443.765 1017.7 452.96 1012.13 463.131C1006.69 473.162 1000.56 481.382 993.737 487.791C982.312 498.937 968.171 506.46 951.313 510.361C942.257 512.591 932.017 513.705 920.592 513.705C892.727 513.705 869.112 503.604 849.746 483.402C830.38 463.061 820.698 434.639 820.698 398.137C820.698 362.192 830.45 333.003 849.955 310.572C869.461 288.141 894.957 276.926 926.444 276.926ZM986.422 375.984C984.89 359.684 981.337 346.657 975.764 336.904C965.454 318.792 948.248 309.736 924.145 309.736C906.869 309.736 892.379 316.006 880.676 328.545C868.973 340.945 862.773 356.758 862.076 375.984H986.422Z" fill="black"/>
<path d="M1054.36 281.942H1091.56V313.707C1100.47 302.701 1108.56 294.69 1115.8 289.674C1128.2 281.175 1142.27 276.926 1158.02 276.926C1175.85 276.926 1190.2 281.315 1201.07 290.092C1207.2 295.108 1212.77 302.492 1217.78 312.244C1226.14 300.262 1235.97 291.415 1247.25 285.703C1258.54 279.852 1271.21 276.926 1285.29 276.926C1315.38 276.926 1335.86 287.793 1346.73 309.527C1352.58 321.231 1355.51 336.974 1355.51 356.758V505.764H1316.43V350.279C1316.43 335.372 1312.66 325.132 1305.14 319.559C1297.76 313.986 1288.7 311.199 1277.97 311.199C1263.2 311.199 1250.46 316.145 1239.73 326.037C1229.14 335.929 1223.85 352.439 1223.85 375.567V505.764H1185.6V359.684C1185.6 344.498 1183.79 333.421 1180.17 326.455C1174.46 316.006 1163.8 310.781 1148.19 310.781C1133.98 310.781 1121.02 316.285 1109.32 327.291C1097.76 338.298 1091.98 358.221 1091.98 387.061V505.764H1054.36V281.942Z" fill="black"/>
<path d="M1422.61 446.203C1422.61 457.07 1426.58 465.639 1434.52 471.908C1442.46 478.178 1451.86 481.313 1462.73 481.313C1475.97 481.313 1488.78 478.248 1501.18 472.117C1522.08 461.947 1532.53 445.298 1532.53 422.17V391.867C1527.93 394.793 1522.01 397.231 1514.77 399.182C1507.52 401.132 1500.42 402.526 1493.45 403.361L1470.67 406.287C1457.02 408.098 1446.78 410.955 1439.95 414.856C1428.39 421.404 1422.61 431.853 1422.61 446.203ZM1513.72 370.133C1522.36 369.018 1528.14 365.396 1531.07 359.266C1532.74 355.922 1533.58 351.115 1533.58 344.846C1533.58 332.028 1528.98 322.763 1519.78 317.051C1510.73 311.199 1497.7 308.274 1480.7 308.274C1461.06 308.274 1447.13 313.568 1438.91 324.156C1434.31 330.008 1431.31 338.716 1429.92 350.279H1394.81C1395.51 322.693 1404.42 303.537 1421.56 292.809C1438.84 281.942 1458.83 276.508 1481.54 276.508C1507.87 276.508 1529.26 281.524 1545.7 291.555C1562 301.586 1570.15 317.19 1570.15 338.367V467.311C1570.15 471.212 1570.92 474.346 1572.45 476.715C1574.12 479.083 1577.53 480.268 1582.69 480.268C1584.36 480.268 1586.24 480.198 1588.33 480.059C1590.42 479.78 1592.65 479.432 1595.02 479.014V506.809C1589.17 508.481 1584.71 509.526 1581.64 509.943C1578.58 510.361 1574.4 510.57 1569.1 510.57C1556.15 510.57 1546.74 505.973 1540.89 496.777C1537.83 491.901 1535.67 485.005 1534.41 476.088C1526.75 486.119 1515.74 494.827 1501.39 502.211C1487.04 509.595 1471.23 513.287 1453.95 513.287C1433.19 513.287 1416.2 507.018 1402.96 494.479C1389.87 481.8 1383.32 465.987 1383.32 447.039C1383.32 426.28 1389.8 410.188 1402.75 398.764C1415.71 387.339 1432.71 380.304 1453.74 377.656L1513.72 370.133Z" fill="black"/>
<path d="M1615.93 198.766H1653.55V505.764H1615.93V198.766Z" fill="black"/>
</svg>
