<svg width="2511" height="1334" viewBox="0 0 2511 1334" fill="none" xmlns="http://www.w3.org/2000/svg">
<path fill-rule="evenodd" clip-rule="evenodd" d="M620.972 1.30377C584.316 3.82775 532.808 12.2571 498.39 21.3656C428.434 39.8775 368.234 66.5521 304.135 107.437C287.764 117.878 249.49 146.554 233.131 160.633C148.101 233.813 81.6027 328.848 41.7081 434.201C0.140145 543.976 -10.7716 668.514 10.8081 786.884C31.1513 898.468 80.9382 1004.43 154.573 1092.88C171.945 1113.74 202.652 1145.58 222.414 1163.22C244.468 1182.9 280.973 1210.94 302.795 1224.95C322.432 1237.57 326.379 1239.99 338.297 1246.71C412.167 1288.41 495.155 1316.43 577.161 1327.37C630.853 1334.53 604.155 1334.29 1269.38 1333.78C1934.03 1333.27 1887.5 1333.76 1938.32 1326.76C1988.98 1319.77 2050.31 1302.87 2100.23 1282.12C2114.8 1276.07 2151.22 1258.46 2163.63 1251.48C2166.2 1250.02 2172.84 1246.31 2178.36 1243.21C2202.16 1229.9 2232.22 1209.09 2260.08 1186.64C2286.86 1165.07 2293.69 1158.87 2318.8 1133.43C2442.53 1008.02 2510.61 842.524 2510.61 667.176C2510.61 506.132 2454.15 354.287 2348.89 232.252C2230.65 95.1639 2068.57 14.0777 1886.98 1.16042C1863.97 -0.476679 644.817 -0.338692 620.972 1.30377ZM1908.41 192.365C1984.59 204.097 2041.95 225.232 2103.34 264.182C2178.32 311.761 2242.56 385.938 2279.87 468.037C2351.74 626.134 2331.93 810.817 2228.09 950.996C2189.71 1002.8 2137.55 1049.37 2082.64 1080.88C2024.85 1114.04 1969.85 1132.32 1898.37 1142.15C1882.78 1144.3 1839.54 1144.49 1273.4 1144.92C871.602 1145.22 657.837 1144.91 643.541 1144.02C534.608 1137.17 436.557 1096.74 355.043 1025.07C281.629 960.516 229.76 874.67 206.92 779.916C197.249 739.798 193.768 709.886 193.779 666.982C193.798 587.575 209.579 521.2 245.289 450.34C291.434 358.767 366.823 283.917 458.869 238.283C513.382 211.257 575.379 194.132 635.038 189.619C638.354 189.368 922 189.233 1265.36 189.32L1889.66 189.475L1908.41 192.365Z" fill="#D26928"/>
<path fill-rule="evenodd" clip-rule="evenodd" d="M538.548 347.989C529.164 348.807 513.275 352.65 507.735 355.443C485.353 366.729 468.103 396.232 458.582 439.51L455.487 453.577V668.598C455.487 901.138 455.159 890.207 462.889 915.101C472.302 945.411 491.205 967.029 517.783 977.873C525.553 981.044 532.465 982.845 544.55 984.848C548.588 985.516 607.367 986.092 675.17 986.126L798.448 986.187L798.795 914.482L799.141 842.778L713.725 842.432L628.308 842.088V791.849V741.611L713.713 741.266L799.118 740.921V668.588V596.254H714.048H628.977V542.667V489.079H714.048H799.118V418.075V347.072L671.513 347.297C601.329 347.421 541.496 347.732 538.548 347.989ZM906.719 348.54C893.67 350.061 881.77 354.27 872.131 360.774C845.131 378.997 836.201 393.658 831.837 426.925C828.715 450.745 829.73 653.195 833.058 669.937C842.625 718.076 862.81 738.621 904.137 742.279C912.323 743.004 935.449 743.603 955.527 743.608L992.034 743.62V791.705V839.787L988.552 840.662C986.636 841.142 950.313 841.453 907.835 841.352L830.601 841.167V913.686V986.203L961.273 986.13C1085.87 986.059 1099.18 985.701 1112.74 982.048C1131.2 977.079 1149.91 960.839 1159.85 941.155C1166.95 927.103 1166.86 929.142 1166.86 779.792C1166.86 625.867 1167.27 633.449 1157.91 614.253C1153.04 604.251 1142.6 593.758 1133.31 589.529C1118.21 582.651 1115.36 582.362 1057.34 581.843L1002.75 581.354V535.217V489.079H1085.14H1167.53V418.075V347.072L1041.94 347.246C972.86 347.341 912.011 347.924 906.719 348.54ZM1198.35 666.876V986.774L1284.42 986.494L1370.5 986.213L1370.84 887.022L1371.18 787.83L1444.52 787.822C1525.74 787.814 1535.54 787.101 1554.36 779.844C1580.79 769.649 1594.67 754.091 1603.4 724.865C1610.23 702.024 1610.3 700.222 1610.3 558.743C1610.3 436.978 1610.11 425.868 1607.89 414.94C1604.53 398.421 1600.44 387.907 1593.05 376.793C1582.71 361.239 1573.12 354.48 1555.22 350.119C1546.88 348.09 1529.29 347.83 1372.17 347.425L1198.35 346.977V666.876ZM1621.69 348.351C1621.69 349.066 1622.84 352.838 1624.24 356.734C1631.49 376.901 1638.2 404.883 1640.39 424.104C1641.28 431.952 1641.77 532.157 1641.77 711.133C1641.78 893.54 1642.24 986.108 1643.12 986.115C1643.86 986.12 1682.74 986.13 1729.52 986.135L1814.58 986.145L1815 758.712C1815.31 582.458 1815.78 529.922 1817.07 525.251C1821.64 508.726 1829.39 500.87 1843.76 498.198C1850.97 496.857 1853.2 496.968 1859.6 498.986C1868.92 501.924 1876 508.921 1879.59 518.734C1882.15 525.741 1882.23 531.669 1882.91 756.053L1883.6 986.183L1970.01 986.182H2056.42V701.124C2056.42 384.231 2057.02 405.718 2047.56 386.962C2041.99 375.93 2026.9 360.821 2016.62 355.994C1999.71 348.059 1996.79 347.742 1940.53 347.742C1884.79 347.742 1881.54 348.066 1866.18 355.162C1844.76 365.062 1829.99 383.44 1817.91 415.257L1813.63 426.505L1812.72 409.898C1811.61 389.796 1809.17 375.811 1803.99 359.799L1800.08 347.742L1710.89 347.397C1653.94 347.178 1621.69 347.522 1621.69 348.351ZM1418.49 490.515C1426.02 492.609 1433.53 500.044 1436.4 508.254C1438.57 514.481 1438.82 520.418 1438.82 565.441C1438.82 610.124 1438.56 616.434 1436.44 622.497C1432.01 635.18 1422.81 640.887 1406.56 641.035C1396.76 641.125 1395.12 640.751 1389.17 637.073C1381.95 632.605 1377.27 626.618 1375.21 619.187C1373.24 612.122 1373.41 516.957 1375.4 510.324C1377.35 503.82 1384.66 495.161 1391.06 491.78C1396.64 488.832 1410.18 488.208 1418.49 490.515Z" fill="#BD2326"/>
</svg>
