<svg width="200" height="200" viewBox="0 0 200 200" xmlns="http://www.w3.org/2000/svg">
  <defs>
    <radialGradient id="mlSphere1" cx="30%" cy="30%" r="70%">
      <stop offset="0%" style="stop-color:#3b82f6;stop-opacity:1" /> <!-- Blue primary -->
      <stop offset="70%" style="stop-color:#2563eb;stop-opacity:1" />
      <stop offset="100%" style="stop-color:#1d4ed8;stop-opacity:1" />
    </radialGradient>
    <radialGradient id="mlSphere2" cx="40%" cy="40%" r="60%">
      <stop offset="0%" style="stop-color:#60a5fa;stop-opacity:1" /> <!-- Blue Light -->
      <stop offset="70%" style="stop-color:#3b82f6;stop-opacity:1" />
      <stop offset="100%" style="stop-color:#2563eb;stop-opacity:1" />
    </radialGradient>
    <radialGradient id="mlSphere3" cx="35%" cy="35%" r="65%">
      <stop offset="0%" style="stop-color:#93c5fd;stop-opacity:1" /> <!-- Blue Lighter -->
      <stop offset="70%" style="stop-color:#60a5fa;stop-opacity:1" />
      <stop offset="100%" style="stop-color:#3b82f6;stop-opacity:1" />
    </radialGradient>
    <filter id="mlSphereShadow" x="-50%" y="-50%" width="200%" height="200%">
      <feDropShadow dx="2" dy="2" stdDeviation="3" flood-color="#000000" flood-opacity="0.3"/>
    </filter>
  </defs>
  
  <!-- Brain icon in center -->
  <g class="mlCenterPulse" filter="url(#mlSphereShadow)">
    <!-- Brain outline - left hemisphere -->
    <path d="M100 84 C96 84 92 86 90 89 C87 86 83 85 80 86 C76 87 74 91 74 95 C72 96 71 99 72 102 C71 105 72 108 74 110 C74 113 76 116 80 117 C83 118 87 117 89 115 C92 118 96 119 100 119"
          fill="none" stroke="#2563eb" stroke-width="2" stroke-linecap="round" opacity="0.85"/>
    <!-- Brain outline - right hemisphere -->
    <path d="M100 84 C104 84 108 86 110 89 C113 86 117 85 120 86 C124 87 126 91 126 95 C128 96 129 99 128 102 C129 105 128 108 126 110 C126 113 124 116 120 117 C117 118 113 117 111 115 C108 118 104 119 100 119"
          fill="none" stroke="#2563eb" stroke-width="2" stroke-linecap="round" opacity="0.85"/>
    <!-- Brain center line -->
    <line x1="100" y1="84" x2="100" y2="119" stroke="#3b82f6" stroke-width="1.2" opacity="0.5"/>
    <!-- Brain folds - left -->
    <path d="M90 95 C86 96 83 99 84 102" fill="none" stroke="#3b82f6" stroke-width="1.2" stroke-linecap="round" opacity="0.6"/>
    <path d="M92 104 C88 106 86 109 88 112" fill="none" stroke="#3b82f6" stroke-width="1.2" stroke-linecap="round" opacity="0.6"/>
    <!-- Brain folds - right -->
    <path d="M110 95 C114 96 117 99 116 102" fill="none" stroke="#3b82f6" stroke-width="1.2" stroke-linecap="round" opacity="0.6"/>
    <path d="M108 104 C112 106 114 109 112 112" fill="none" stroke="#3b82f6" stroke-width="1.2" stroke-linecap="round" opacity="0.6"/>
    <!-- Brain stem -->
    <path d="M97 119 L97 124 M103 119 L103 124 M97 124 Q100 127 103 124" fill="none" stroke="#2563eb" stroke-width="1.5" stroke-linecap="round" opacity="0.7"/>
  </g>
  
  <!-- Orbit 1 Group with dashed connections (Blue Light) -->
  <g class="mlOrbit1">
    <circle cx="100" cy="50" r="4" fill="url(#mlSphere2)" filter="url(#mlSphereShadow)" opacity="0.8" class="mlPathFollow1"/>
    <circle cx="150" cy="100" r="3" fill="#60a5fa" opacity="0.7" class="mlPathFollow2"/>
    <circle cx="100" cy="150" r="5" fill="url(#mlSphere3)" filter="url(#mlSphereShadow)" opacity="0.8" class="mlPathFollow3"/>
    <circle cx="50" cy="100" r="3" fill="#1d4ed8" opacity="0.7" class="mlPathFollow4"/>
    <!-- Dashed connections for orbit 1 -->
    <line x1="100" y1="50" x2="150" y2="100" stroke="#60a5fa" stroke-width="1" stroke-dasharray="3,3" opacity="0.3"/>
    <line x1="150" y1="100" x2="100" y2="150" stroke="#60a5fa" stroke-width="1" stroke-dasharray="3,3" opacity="0.3"/>
    <line x1="100" y1="150" x2="50" y2="100" stroke="#60a5fa" stroke-width="1" stroke-dasharray="3,3" opacity="0.3"/>
    <line x1="50" y1="100" x2="100" y2="50" stroke="#60a5fa" stroke-width="1" stroke-dasharray="3,3" opacity="0.3"/>
  </g>
  
  <!-- Orbit 2 Group with dashed connections (Blue Lighter) -->
  <g class="mlOrbit2">
    <circle cx="120" cy="80" r="3" fill="#93c5fd" opacity="0.7" class="mlPathFollow5"/>
    <circle cx="80" cy="120" r="4" fill="url(#mlSphere1)" filter="url(#mlSphereShadow)" opacity="0.8" class="mlPathFollow6"/>
    <circle cx="120" cy="120" r="3" fill="#60a5fa" opacity="0.7" class="mlPathFollow7"/>
    <circle cx="80" cy="80" r="3" fill="#1d4ed8" opacity="0.7" class="mlPathFollow8"/>
    <!-- Dashed connections for orbit 2 -->
    <line x1="120" y1="80" x2="80" y2="120" stroke="#93c5fd" stroke-width="1" stroke-dasharray="3,3" opacity="0.3"/>
    <line x1="80" y1="120" x2="120" y2="120" stroke="#93c5fd" stroke-width="1" stroke-dasharray="3,3" opacity="0.3"/>
    <line x1="120" y1="120" x2="80" y2="80" stroke="#93c5fd" stroke-width="1" stroke-dasharray="3,3" opacity="0.3"/>
    <line x1="80" y1="80" x2="120" y2="80" stroke="#93c5fd" stroke-width="1" stroke-dasharray="3,3" opacity="0.3"/>
  </g>
  
  <style>
    .mlCenterPulse {
      transform-origin: 100px 102px;
      animation: mlCenterPulse 8s ease-in-out infinite;
    }
    .mlPulseCenter {
      animation: mlPulseCenter 18s ease-in-out infinite;
    }
    
    /* Path following animations for orbit 1 (diamond shape) */
    .mlPathFollow1 {
      animation: mlPath1 60s linear infinite;
      animation-delay: -30s;
    }
    .mlPathFollow2 {
      animation: mlPath1 60s linear infinite;
      animation-delay: -15s;
    }
    .mlPathFollow3 {
      animation: mlPath1 60s linear infinite;
      animation-delay: -45s;
    }
    .mlPathFollow4 {
      animation: mlPath1 60s linear infinite;
      animation-delay: -0s;
    }
    
    /* Path following animations for orbit 2 (square shape) */
    .mlPathFollow5 {
      animation: mlPath2 72s linear infinite;
      animation-delay: -36s;
    }
    .mlPathFollow6 {
      animation: mlPath2 72s linear infinite;
      animation-delay: -18s;
    }
    .mlPathFollow7 {
      animation: mlPath2 72s linear infinite;
      animation-delay: -54s;
    }
    .mlPathFollow8 {
      animation: mlPath2 72s linear infinite;
      animation-delay: -0s;
    }
    
    /* Path 1: Diamond shape - 100,50 -> 150,100 -> 100,150 -> 50,100 -> 100,50 */
    @keyframes mlPath1 {
      0%, 100% { transform: translate(0px, 0px); }
      25% { transform: translate(50px, 50px); }
      50% { transform: translate(0px, 100px); }
      75% { transform: translate(-50px, 50px); }
    }
    
    /* Path 2: Square shape - 120,80 -> 80,120 -> 120,120 -> 80,80 -> 120,80 */
    @keyframes mlPath2 {
      0%, 100% { transform: translate(0px, 0px); }
      25% { transform: translate(-40px, 40px); }
      50% { transform: translate(0px, 40px); }
      75% { transform: translate(-40px, 0px); }
    }
    
    @keyframes mlCenterPulse {
      0%, 100% { transform: scale(1); opacity: 0.9; }
      50% { transform: scale(1.06); opacity: 1; }
    }
    
    @keyframes mlPulseCenter {
      0%, 100% { 
        opacity: 0.2;
        transform: scale(0.8);
      }
      50% { 
        opacity: 0.4;
        transform: scale(1.2);
      }
    }
  </style>
</svg>
